<?xml version="1.0" encoding="utf-8"?>
<!-- Generator: Adobe Illustrator 21.0.0, SVG Export Plug-In . SVG Version: 6.00 Build 0)  -->
<svg version="1.1" id="Layer_1" xmlns="http://www.w3.org/2000/svg" xmlns:xlink="http://www.w3.org/1999/xlink" x="0px" y="0px"
	 viewBox="0 0 64 168" style="enable-background:new 0 0 64 168;" xml:space="preserve">
<style type="text/css">
	.st0{fill:#808184;}
</style>
<polygon class="st0" points="32,156 32,168 64,156 64,144 "/>
<polygon class="st0" points="32,36 32,48 64,36 64,24 "/>
<polygon class="st0" points="32,132 32,144 64,132 64,120 "/>
<polygon class="st0" points="64,0 32,12 32,24 64,12 "/>
<polygon class="st0" points="32,108 32,120 64,108 64,96 "/>
<polygon class="st0" points="32,84 32,96 64,84 64,72 "/>
<polygon class="st0" points="32,60 32,72 64,60 64,48 "/>
<polygon class="st0" points="0,156 0,168 32,156 32,144 "/>
<polygon class="st0" points="0,36 0,48 32,36 32,24 "/>
<polygon class="st0" points="0,132 0,144 32,132 32,120 "/>
<polygon class="st0" points="32,0 0,12 0,24 32,12 "/>
<polygon class="st0" points="0,108 0,120 32,108 32,96 "/>
<polygon class="st0" points="0,84 0,96 32,84 32,72 "/>
<polygon class="st0" points="0,60 0,72 32,60 32,48 "/>
</svg>
