<?xml version="1.0" encoding="utf-8"?>
<!-- Generator: Adobe Illustrator 21.0.0, SVG Export Plug-In . SVG Version: 6.00 Build 0)  -->
<svg version="1.1" id="Layer_1" xmlns="http://www.w3.org/2000/svg" xmlns:xlink="http://www.w3.org/1999/xlink" x="0px" y="0px"
	 viewBox="0 0 224 205" style="enable-background:new 0 0 224 205;" xml:space="preserve">
<style type="text/css">
	.st0{clip-path:url(#SVGID_2_);fill:#D0D2D3;}
	.st1{fill:#D0D2D3;}
	.st2{clip-path:url(#SVGID_4_);fill:#D0D2D3;}
	.st3{clip-path:url(#SVGID_6_);fill:#FFFFFF;}
	.st4{clip-path:url(#SVGID_8_);fill:#E51E28;}
	.st5{clip-path:url(#SVGID_8_);fill:#929497;}
	.st6{clip-path:url(#SVGID_10_);fill:none;stroke:#FFFFFF;stroke-width:2;stroke-miterlimit:10;}
	.st7{clip-path:url(#SVGID_10_);fill:#D0D2D3;}
	.st8{clip-path:url(#SVGID_12_);fill:#FFFFFF;}
	.st9{clip-path:url(#SVGID_14_);fill:#E51E28;}
	.st10{clip-path:url(#SVGID_14_);fill:#929497;}
	.st11{clip-path:url(#SVGID_16_);fill:none;stroke:#FFFFFF;stroke-width:2;stroke-miterlimit:10;}
</style>
<g>
	<defs>
		<rect id="SVGID_1_" width="226" height="205"/>
	</defs>
	<clipPath id="SVGID_2_">
		<use xlink:href="#SVGID_1_"  style="overflow:visible;"/>
	</clipPath>
	<path class="st0" d="M65,76c17.7,0,32-2.3,32-20S82.7,24,65,24S33,38.3,33,56S47.3,76,65,76"/>
	<path class="st0" d="M49,144c26.5,0,48-9.5,48-36S75.5,60,49,60S1,81.5,1,108S22.5,144,49,144"/>
	<path class="st0" d="M177,144c-26.5,0-48-9.5-48-36s21.5-48,48-48s48,21.5,48,48S203.5,144,177,144"/>
	<path class="st0" d="M161,76c17.7,0,32-2.3,32-20s-14.3-32-32-32s-32,14.3-32,32S143.3,76,161,76"/>
	<path class="st0" d="M97,60V16c0-8.8-7.2-16-16-16c-8.8,0-16,7.2-16,16v44H97z"/>
	<path class="st0" d="M161,60V16c0-8.8-7.2-16-16-16c-8.8,0-16,7.2-16,16v44H161z"/>
</g>
<rect x="65" y="60" class="st1" width="96" height="60"/>
<rect x="33" y="56" class="st1" width="64" height="52"/>
<rect x="129" y="56" class="st1" width="64" height="52"/>
<rect x="1" y="110" class="st1" width="96" height="46"/>
<rect x="129" y="110" class="st1" width="96" height="46"/>
<g>
	<defs>
		<rect id="SVGID_3_" width="226" height="205"/>
	</defs>
	<clipPath id="SVGID_4_">
		<use xlink:href="#SVGID_3_"  style="overflow:visible;"/>
	</clipPath>
	<path class="st2" d="M49,204c26.5,0,48-21.5,48-48s-21.5-48-48-48S1,129.5,1,156S22.5,204,49,204"/>
</g>
<g>
	<defs>
		<path id="SVGID_5_" d="M1,156c0,26.5,21.5,48,48,48s48-21.5,48-48s-21.5-48-48-48S1,129.5,1,156"/>
	</defs>
	<clipPath id="SVGID_6_">
		<use xlink:href="#SVGID_5_"  style="overflow:visible;"/>
	</clipPath>
	<path class="st3" d="M49.1,132.1c26.6,0,48.1-21.5,48.1-48.1c0-26.6-21.5-48.1-48.1-48.1S1,57.4,1,84
		C1,110.6,22.5,132.1,49.1,132.1"/>
</g>
<g>
	<defs>
		<path id="SVGID_7_" d="M17.2,120c8.5,7.5,19.6,12.1,31.9,12.1c12.2,0,23.3-4.5,31.8-12C72.4,112.6,61.2,108,49,108
			C36.8,108,25.7,112.5,17.2,120"/>
	</defs>
	<clipPath id="SVGID_8_">
		<use xlink:href="#SVGID_7_"  style="overflow:visible;"/>
	</clipPath>
	<path class="st4" d="M-22.7,118.2C35.7,118.2,83,70.9,83,12.5S35.7-93.2-22.7-93.2S-128.4-45.9-128.4,12.5S-81.1,118.2-22.7,118.2"
		/>
	<path class="st5" d="M12.8,115.2c31.5-16.3,81.7-1.8,76.2-56.3c0,0,32.1-41.7,34.5-39.9c2.4,1.8,21.8,12.1,24.2,39.9
		c2.4,27.8,13.3,46,0,65.3c-13.3,19.4-12.1,38.1-43.6,38.1S1.9,156.9,1.9,146C1.9,135.1,12.8,115.2,12.8,115.2"/>
</g>
<g>
	<defs>
		<rect id="SVGID_9_" width="226" height="205"/>
	</defs>
	<clipPath id="SVGID_10_">
		<use xlink:href="#SVGID_9_"  style="overflow:visible;"/>
	</clipPath>
	<circle class="st6" cx="49" cy="156" r="48"/>
	<path class="st7" d="M177,204c-26.5,0-48-21.5-48-48s21.5-48,48-48s48,21.5,48,48S203.5,204,177,204"/>
</g>
<g>
	<defs>
		<path id="SVGID_11_" d="M129,156c0,26.5,21.5,48,48,48s48-21.5,48-48s-21.5-48-48-48S129,129.5,129,156"/>
	</defs>
	<clipPath id="SVGID_12_">
		<use xlink:href="#SVGID_11_"  style="overflow:visible;"/>
	</clipPath>
	<path class="st8" d="M177.1,132.2c26.6,0,48.1-21.5,48.1-48.1c0-26.6-21.5-48.1-48.1-48.1S129,57.5,129,84.1
		C129,110.7,150.5,132.2,177.1,132.2"/>
</g>
<g>
	<defs>
		<path id="SVGID_13_" d="M145.2,120.1c8.5,7.5,19.7,12.1,31.9,12.1c12.2,0,23.3-4.5,31.8-12c-8.5-7.6-19.7-12.2-31.9-12.2
			C164.8,108,153.6,112.6,145.2,120.1"/>
	</defs>
	<clipPath id="SVGID_14_">
		<use xlink:href="#SVGID_13_"  style="overflow:visible;"/>
	</clipPath>
	<path class="st9" d="M105.3,118.3C163.7,118.3,211,71,211,12.6S163.7-93.1,105.3-93.1S-0.4-45.8-0.4,12.6S46.9,118.3,105.3,118.3"
		/>
	<path class="st10" d="M140.8,115.3c31.5-16.3,81.7-1.8,76.2-56.3c0,0,32.1-41.7,34.5-39.9s21.8,12.1,24.2,39.9s13.3,46,0,65.3
		s-12.1,38.1-43.6,38.1s-102.2-5.4-102.2-16.3C129.9,135.2,140.8,115.3,140.8,115.3"/>
</g>
<g>
	<defs>
		<rect id="SVGID_15_" width="226" height="205"/>
	</defs>
	<clipPath id="SVGID_16_">
		<use xlink:href="#SVGID_15_"  style="overflow:visible;"/>
	</clipPath>
	<circle class="st11" cx="177" cy="156" r="48"/>
</g>
</svg>
