<?xml version="1.0" encoding="utf-8"?>
<!-- Generator: Adobe Illustrator 21.0.0, SVG Export Plug-In . SVG Version: 6.00 Build 0)  -->
<svg version="1.1" id="Layer_1" xmlns="http://www.w3.org/2000/svg" xmlns:xlink="http://www.w3.org/1999/xlink" x="0px" y="0px"
	 viewBox="0 0 156 156" style="enable-background:new 0 0 156 156;" xml:space="preserve">
<style type="text/css">
	.st0{clip-path:url(#SVGID_2_);fill:#D0D2D3;}
	.st1{clip-path:url(#SVGID_4_);fill:#929497;}
	.st2{clip-path:url(#SVGID_4_);fill:#FFFFFF;}
</style>
<g>
	<defs>
		<rect id="SVGID_1_" y="0.1" width="155.9" height="155.9"/>
	</defs>
	<clipPath id="SVGID_2_">
		<use xlink:href="#SVGID_1_"  style="overflow:visible;"/>
	</clipPath>
	<path class="st0" d="M78,156c43.1,0,78-34.9,78-78s-34.9-78-78-78S0,35,0,78S34.9,156,78,156"/>
</g>
<g>
	<defs>
		<circle id="SVGID_3_" cx="78" cy="78" r="78"/>
	</defs>
	<clipPath id="SVGID_4_">
		<use xlink:href="#SVGID_3_"  style="overflow:visible;"/>
	</clipPath>
	<path class="st1" d="M49,97V75c0-8,1-23,5-30s10-20,19-25s16-5,25-2s23,16,24,41s6,41,9,46s10,32,10,34s-6,35-13,38s-37,10-48,5
		s-31-13-30-29S49,97,49,97"/>
	<path class="st2" d="M19,132c0-1,10-29,14-33s28-9,28-9l1-13c0,0-5-8-4-14s6-21,6-21s7-1,13,7l8-1l6-10l-2,12l14,7
		c0,0-6.5,19.4-9,22c-3,3-4,3-4,3l-1,5c0,0-5,3-7,8c-2,5,0,17,0,17s-14,11-13,16s0,11,0,10s7,0,10-5s9-7,9-7s-2,9-2,10s-6,22-6,23
		s12,6,15,0s7-18,6-22s-2-11,2-14s4-11,8-11s7,2,8,7s3,29,4,29s-19,29-32,29s-40-1-43-6S19,132,19,132"/>
</g>
</svg>
