<?xml version="1.0" encoding="utf-8"?>
<!-- Generator: Adobe Illustrator 21.0.0, SVG Export Plug-In . SVG Version: 6.00 Build 0)  -->
<svg version="1.1" id="Layer_1" xmlns="http://www.w3.org/2000/svg" xmlns:xlink="http://www.w3.org/1999/xlink" x="0px" y="0px"
	 viewBox="0 0 689 398" style="enable-background:new 0 0 689 398;" xml:space="preserve">
<style type="text/css">
	.st0{display:none;}
	.st1{display:inline;fill:#D0D2D3;}
	.st2{display:inline;fill:none;stroke:#FFFFFF;stroke-miterlimit:10;}
	.st3{display:inline;}
	.st4{clip-path:url(#SVGID_2_);fill:none;stroke:#FFFFFF;stroke-miterlimit:10;}
	.st5{clip-path:url(#SVGID_2_);fill:#FFFFFF;}
	.st6{clip-path:url(#SVGID_4_);fill:none;stroke:#E51E28;stroke-width:12;stroke-miterlimit:10;}
	.st7{fill:#D0D2D3;}
	.st8{fill:none;stroke:#FFFFFF;stroke-miterlimit:10;}
	.st9{clip-path:url(#SVGID_6_);fill:none;stroke:#FFFFFF;stroke-miterlimit:10;}
	.st10{clip-path:url(#SVGID_6_);fill:#FFFFFF;}
	.st11{clip-path:url(#SVGID_8_);fill:none;stroke:#009F00;stroke-width:12;stroke-miterlimit:10;stroke-dasharray:12.259,12.259;}
</style>
<g class="st0">
	<polygon class="st1" points="0,216.4 374.6,0.1 689.1,181.7 314.6,398 	"/>
	<polyline class="st2" points="356.8,59.2 318.5,105.5 180.9,184.9 100.8,207 	"/>
	<polyline class="st2" points="357,59.4 277,81.5 139.3,160.9 101.1,207.2 	"/>
	<polyline class="st2" points="427.4,100 389.2,146.3 251.6,225.7 171.5,247.8 	"/>
	<polyline class="st2" points="427.7,100.2 347.6,122.3 210,201.7 171.7,248 	"/>
	<polygon class="st2" points="436.7,54.6 358,59.9 349,105.3 427.6,100 	"/>
	<polyline class="st2" points="100.9,207.1 91.6,253.3 171.5,247.9 	"/>
	<line class="st2" x1="358.2" y1="60.1" x2="427" y2="99.8"/>
	<polygon class="st2" points="355.9,101.3 381.4,99.5 426.8,73.3 429.8,58.6 404.3,60.3 358.9,86.5 	"/>
	<line class="st2" x1="100.8" y1="207.4" x2="171.1" y2="248"/>
	<line class="st2" x1="101.3" y1="206.5" x2="51.2" y2="231.1"/>
	<line class="st2" x1="172.5" y1="247.7" x2="134" y2="274.3"/>
	<line class="st2" x1="123.8" y1="268.5" x2="137.1" y2="276.2"/>
	<polygon class="st2" points="107.9,233.1 126.5,243.9 137.3,237.6 118.7,226.9 	"/>
	<line class="st2" x1="428" y1="99.3" x2="431.9" y2="114"/>
	<line class="st2" x1="354.7" y1="60.4" x2="402" y2="33"/>
	<line class="st2" x1="436.8" y1="94.1" x2="472.3" y2="73.6"/>
	<line class="st2" x1="414" y1="55.9" x2="346" y2="16.6"/>
	<line class="st2" x1="431.7" y1="115" x2="482.6" y2="79.5"/>
	<polyline class="st2" points="576.8,186.3 496.7,208.3 359.1,287.8 320.8,334 	"/>
	<polyline class="st2" points="576.5,186.1 538.3,232.3 400.7,311.8 320.6,333.9 	"/>
	<polyline class="st2" points="506.1,145.5 426,167.5 288.4,247 250.2,293.2 	"/>
	<polyline class="st2" points="505.9,145.3 467.6,191.5 330,271 249.9,293.1 	"/>
	<polygon class="st2" points="584.8,140.1 575.7,185.5 497.1,190.8 506.2,145.4 	"/>
	<polyline class="st2" points="320.6,334 240.7,339.3 250,293.2 	"/>
	<line class="st2" x1="575.3" y1="185.4" x2="506.5" y2="145.7"/>
	<polygon class="st2" points="504,186.8 507,172.1 552.4,145.8 577.9,144.1 574.9,158.8 529.5,185 	"/>
	<line class="st2" x1="320.2" y1="334.1" x2="249.8" y2="293.5"/>
	<line class="st2" x1="321.6" y1="333.8" x2="279" y2="362.7"/>
	<line class="st2" x1="250.4" y1="292.6" x2="204.3" y2="314.9"/>
	<line class="st2" x1="214.3" y1="320.8" x2="201" y2="313.1"/>
	<polygon class="st2" points="275.6,329.9 257,319.2 267.8,313 286.4,323.7 	"/>
	<line class="st2" x1="507.4" y1="145.1" x2="481.9" y2="142.9"/>
	<line class="st2" x1="574.8" y1="187.5" x2="622.2" y2="160.1"/>
	<line class="st2" x1="516.4" y1="140.1" x2="551.9" y2="119.6"/>
	<line class="st2" x1="582.6" y1="153.2" x2="650.6" y2="192.5"/>
	<line class="st2" x1="480.1" y1="143" x2="541.6" y2="113.6"/>
	<polygon class="st2" points="434.2,116.5 477.8,141.6 534.9,108.6 491.3,83.5 	"/>
	<g class="st3">
		<defs>
			<rect id="SVGID_1_" y="0.1" width="689.1" height="397.9"/>
		</defs>
		<clipPath id="SVGID_2_">
			<use xlink:href="#SVGID_1_"  style="overflow:visible;"/>
		</clipPath>
		<path class="st4" d="M461.9,125.6c10.8,6.3,29.8,5.5,42.3-1.8c12.5-7.2,13.9-18.1,3-24.4c-10.8-6.3-29.8-5.5-42.3,1.8
			C452.4,108.5,451.1,119.4,461.9,125.6z"/>
		<path class="st5" d="M468,122.1c7.9,4.6,21.7,4,30.9-1.3c9.1-5.3,10.1-13.3,2.2-17.8c-7.9-4.6-21.7-4-30.9,1.3
			C461.1,109.6,460.1,117.5,468,122.1"/>
		<path class="st4" d="M468,122.1c7.9,4.6,21.7,4,30.9-1.3c9.1-5.3,10.1-13.3,2.2-17.8c-7.9-4.6-21.7-4-30.9,1.3
			C461.1,109.6,460.1,117.5,468,122.1z"/>
	</g>
	<line class="st2" x1="665.5" y1="184" x2="360.8" y2="8.1"/>
	<line class="st2" x1="316.6" y1="385.5" x2="11.8" y2="209.5"/>
	<g class="st3">
		<defs>
			<rect id="SVGID_3_" y="0.1" width="689.1" height="397.9"/>
		</defs>
		<clipPath id="SVGID_4_">
			<use xlink:href="#SVGID_3_"  style="overflow:visible;"/>
		</clipPath>
		<path class="st6" d="M631.1,196.9c-2.5,2.2-15.6,10-15.6,10L322.3,376.2"/>
	</g>
</g>
<g>
	<polygon class="st7" points="-1,216.4 373.6,0.1 688.1,181.7 313.6,398 	"/>
	<polyline class="st8" points="355.8,59.2 317.5,105.5 179.9,184.9 99.8,207 	"/>
	<polyline class="st8" points="356,59.4 276,81.5 138.3,160.9 100.1,207.2 	"/>
	<polyline class="st8" points="426.4,100 388.2,146.3 250.6,225.7 170.5,247.8 	"/>
	<polyline class="st8" points="426.7,100.2 346.6,122.3 209,201.7 170.7,248 	"/>
	<polygon class="st8" points="435.7,54.6 357,59.9 348,105.3 426.6,100 	"/>
	<polyline class="st8" points="99.9,207.1 90.6,253.3 170.5,247.9 	"/>
	<line class="st8" x1="357.2" y1="60.1" x2="426" y2="99.8"/>
	<polygon class="st8" points="354.9,101.3 380.4,99.5 425.8,73.3 428.8,58.6 403.3,60.3 357.9,86.5 	"/>
	<line class="st8" x1="99.8" y1="207.4" x2="170.1" y2="248"/>
	<line class="st8" x1="100.3" y1="206.5" x2="50.2" y2="231.1"/>
	<line class="st8" x1="171.5" y1="247.7" x2="133" y2="274.3"/>
	<line class="st8" x1="122.8" y1="268.5" x2="136.1" y2="276.2"/>
	<polygon class="st8" points="106.9,233.1 125.5,243.9 136.3,237.6 117.7,226.9 	"/>
	<line class="st8" x1="427" y1="99.3" x2="430.9" y2="114"/>
	<line class="st8" x1="353.7" y1="60.4" x2="401" y2="33"/>
	<line class="st8" x1="435.8" y1="94.1" x2="471.3" y2="73.6"/>
	<line class="st8" x1="413" y1="55.9" x2="345" y2="16.6"/>
	<line class="st8" x1="430.7" y1="115" x2="481.6" y2="79.5"/>
	<polyline class="st8" points="575.8,186.3 495.7,208.3 358.1,287.8 319.8,334 	"/>
	<polyline class="st8" points="575.5,186.1 537.3,232.3 399.7,311.8 319.6,333.9 	"/>
	<polyline class="st8" points="505.1,145.5 425,167.5 287.4,247 249.2,293.2 	"/>
	<polyline class="st8" points="504.9,145.3 466.6,191.5 329,271 248.9,293.1 	"/>
	<polygon class="st8" points="583.8,140.1 574.7,185.5 496.1,190.8 505.2,145.4 	"/>
	<polyline class="st8" points="319.6,334 239.7,339.3 249,293.2 	"/>
	<line class="st8" x1="574.3" y1="185.4" x2="505.5" y2="145.7"/>
	<polygon class="st8" points="503,186.8 506,172.1 551.4,145.8 576.9,144.1 573.9,158.8 528.5,185 	"/>
	<line class="st8" x1="319.2" y1="334.1" x2="248.8" y2="293.5"/>
	<line class="st8" x1="320.6" y1="333.8" x2="278" y2="362.7"/>
	<line class="st8" x1="249.4" y1="292.6" x2="203.3" y2="314.9"/>
	<line class="st8" x1="213.3" y1="320.8" x2="200" y2="313.1"/>
	<polygon class="st8" points="274.6,329.9 256,319.2 266.8,313 285.4,323.7 	"/>
	<line class="st8" x1="506.4" y1="145.1" x2="480.9" y2="142.9"/>
	<line class="st8" x1="573.8" y1="187.5" x2="621.2" y2="160.1"/>
	<line class="st8" x1="515.4" y1="140.1" x2="550.9" y2="119.6"/>
	<line class="st8" x1="581.6" y1="153.2" x2="649.6" y2="192.5"/>
	<line class="st8" x1="479.1" y1="143" x2="540.6" y2="113.6"/>
	<polygon class="st8" points="433.2,116.5 476.8,141.6 533.9,108.6 490.3,83.5 	"/>
	<g>
		<defs>
			<rect id="SVGID_5_" x="-1" y="0.1" width="689.1" height="397.9"/>
		</defs>
		<clipPath id="SVGID_6_">
			<use xlink:href="#SVGID_5_"  style="overflow:visible;"/>
		</clipPath>
		<path class="st9" d="M460.9,125.6c10.8,6.3,29.8,5.5,42.3-1.8c12.5-7.2,13.9-18.1,3-24.4c-10.8-6.3-29.8-5.5-42.3,1.8
			C451.4,108.5,450.1,119.4,460.9,125.6z"/>
		<path class="st10" d="M467,122.1c7.9,4.6,21.7,4,30.9-1.3c9.1-5.3,10.1-13.3,2.2-17.8c-7.9-4.6-21.7-4-30.9,1.3
			C460.1,109.6,459.1,117.5,467,122.1"/>
		<path class="st9" d="M467,122.1c7.9,4.6,21.7,4,30.9-1.3c9.1-5.3,10.1-13.3,2.2-17.8c-7.9-4.6-21.7-4-30.9,1.3
			C460.1,109.6,459.1,117.5,467,122.1z"/>
	</g>
	<line class="st8" x1="664.5" y1="184" x2="359.8" y2="8.1"/>
	<line class="st8" x1="315.6" y1="385.5" x2="10.8" y2="209.5"/>
	<g>
		<defs>
			<rect id="SVGID_7_" x="-1" y="0.1" width="689.1" height="397.9"/>
		</defs>
		<clipPath id="SVGID_8_">
			<use xlink:href="#SVGID_7_"  style="overflow:visible;"/>
		</clipPath>
		<line class="st11" x1="627.7" y1="199.3" x2="321.3" y2="376.2"/>
	</g>
</g>
</svg>
