<?xml version="1.0" encoding="utf-8"?>
<!-- Generator: Adobe Illustrator 21.0.0, SVG Export Plug-In . SVG Version: 6.00 Build 0)  -->
<svg version="1.1" id="Layer_1" xmlns="http://www.w3.org/2000/svg" xmlns:xlink="http://www.w3.org/1999/xlink" x="0px" y="0px"
	 viewBox="0 0 259 170" style="enable-background:new 0 0 259 170;" xml:space="preserve">
<style type="text/css">
	.st0{display:none;}
	.st1{display:inline;}
	.st2{clip-path:url(#SVGID_2_);fill:#D0D2D3;}
	.st3{display:inline;fill:#D0D2D3;}
	.st4{clip-path:url(#SVGID_4_);fill:#D0D2D3;}
	.st5{clip-path:url(#SVGID_6_);fill:#FFFFFF;}
	.st6{clip-path:url(#SVGID_8_);fill:#E51E28;}
	.st7{clip-path:url(#SVGID_8_);fill:#929497;}
	.st8{clip-path:url(#SVGID_10_);fill:none;stroke:#FFFFFF;stroke-width:2;stroke-miterlimit:10;}
	.st9{clip-path:url(#SVGID_10_);fill:#D0D2D3;}
	.st10{clip-path:url(#SVGID_12_);fill:#FFFFFF;}
	.st11{clip-path:url(#SVGID_14_);fill:#E51E28;}
	.st12{clip-path:url(#SVGID_14_);fill:#929497;}
	.st13{clip-path:url(#SVGID_16_);fill:none;stroke:#FFFFFF;stroke-width:2;stroke-miterlimit:10;}
	.st14{clip-path:url(#SVGID_18_);fill:#D0D2D3;}
	.st15{clip-path:url(#SVGID_20_);fill:#D0D2D3;}
	.st16{clip-path:url(#SVGID_22_);fill:#FFFFFF;}
	.st17{clip-path:url(#SVGID_24_);fill:#E51E28;}
	.st18{clip-path:url(#SVGID_24_);fill:#0046FF;}
	.st19{clip-path:url(#SVGID_26_);fill:none;stroke:#FFFFFF;stroke-width:2;stroke-miterlimit:10;}
	.st20{clip-path:url(#SVGID_26_);fill:#D0D2D3;}
	.st21{clip-path:url(#SVGID_28_);fill:#FFFFFF;}
	.st22{clip-path:url(#SVGID_30_);fill:#E51E28;}
	.st23{clip-path:url(#SVGID_30_);fill:#0046FF;}
	.st24{clip-path:url(#SVGID_32_);fill:none;stroke:#FFFFFF;stroke-width:2;stroke-miterlimit:10;}
	.st25{fill:#D0D2D3;}
	.st26{clip-path:url(#SVGID_34_);fill:none;stroke:#FFFFFF;stroke-miterlimit:10;}
	.st27{clip-path:url(#SVGID_34_);fill:#D0D2D3;}
	.st28{clip-path:url(#SVGID_34_);fill:none;stroke:#FFFFFF;stroke-width:2;stroke-miterlimit:10;}
	.st29{fill:#FFFFFF;}
	.st30{fill:#0046FF;}
</style>
<g class="st0">
	<g class="st1">
		<defs>
			<rect id="SVGID_1_" width="226" height="205"/>
		</defs>
		<clipPath id="SVGID_2_">
			<use xlink:href="#SVGID_1_"  style="overflow:visible;"/>
		</clipPath>
		<path class="st2" d="M65,76c17.7,0,32-2.3,32-20S82.7,24,65,24S33,38.3,33,56S47.3,76,65,76"/>
		<path class="st2" d="M49,144c26.5,0,48-9.5,48-36S75.5,60,49,60S1,81.5,1,108S22.5,144,49,144"/>
		<path class="st2" d="M177,144c-26.5,0-48-9.5-48-36s21.5-48,48-48s48,21.5,48,48S203.5,144,177,144"/>
		<path class="st2" d="M161,76c17.7,0,32-2.3,32-20s-14.3-32-32-32s-32,14.3-32,32S143.3,76,161,76"/>
		<path class="st2" d="M97,60V16c0-8.8-7.2-16-16-16c-8.8,0-16,7.2-16,16v44H97z"/>
		<path class="st2" d="M161,60V16c0-8.8-7.2-16-16-16c-8.8,0-16,7.2-16,16v44H161z"/>
	</g>
	<rect x="65" y="60" class="st3" width="96" height="60"/>
	<rect x="33" y="56" class="st3" width="64" height="52"/>
	<rect x="129" y="56" class="st3" width="64" height="52"/>
	<rect x="1" y="110" class="st3" width="96" height="46"/>
	<rect x="129" y="110" class="st3" width="96" height="46"/>
	<g class="st1">
		<defs>
			<rect id="SVGID_3_" width="226" height="205"/>
		</defs>
		<clipPath id="SVGID_4_">
			<use xlink:href="#SVGID_3_"  style="overflow:visible;"/>
		</clipPath>
		<path class="st4" d="M49,204c26.5,0,48-21.5,48-48s-21.5-48-48-48S1,129.5,1,156S22.5,204,49,204"/>
	</g>
	<g class="st1">
		<defs>
			<path id="SVGID_5_" d="M1,156c0,26.5,21.5,48,48,48s48-21.5,48-48s-21.5-48-48-48S1,129.5,1,156"/>
		</defs>
		<clipPath id="SVGID_6_">
			<use xlink:href="#SVGID_5_"  style="overflow:visible;"/>
		</clipPath>
		<path class="st5" d="M49.1,132.1c26.6,0,48.1-21.5,48.1-48.1c0-26.6-21.5-48.1-48.1-48.1S1,57.4,1,84
			C1,110.6,22.5,132.1,49.1,132.1"/>
	</g>
	<g class="st1">
		<defs>
			<path id="SVGID_7_" d="M17.2,120c8.5,7.5,19.6,12.1,31.9,12.1c12.2,0,23.3-4.5,31.8-12C72.4,112.6,61.2,108,49,108
				C36.8,108,25.7,112.5,17.2,120"/>
		</defs>
		<clipPath id="SVGID_8_">
			<use xlink:href="#SVGID_7_"  style="overflow:visible;"/>
		</clipPath>
		<path class="st6" d="M-22.7,118.2C35.7,118.2,83,70.9,83,12.5S35.7-93.2-22.7-93.2S-128.4-45.9-128.4,12.5S-81.1,118.2-22.7,118.2
			"/>
		<path class="st7" d="M12.8,115.2c31.5-16.3,81.7-1.8,76.2-56.3c0,0,32.1-41.7,34.5-39.9c2.4,1.8,21.8,12.1,24.2,39.9
			c2.4,27.8,13.3,46,0,65.3c-13.3,19.4-12.1,38.1-43.6,38.1S1.9,156.9,1.9,146C1.9,135.1,12.8,115.2,12.8,115.2"/>
	</g>
	<g class="st1">
		<defs>
			<rect id="SVGID_9_" width="226" height="205"/>
		</defs>
		<clipPath id="SVGID_10_">
			<use xlink:href="#SVGID_9_"  style="overflow:visible;"/>
		</clipPath>
		<circle class="st8" cx="49" cy="156" r="48"/>
		<path class="st9" d="M177,204c-26.5,0-48-21.5-48-48s21.5-48,48-48s48,21.5,48,48S203.5,204,177,204"/>
	</g>
	<g class="st1">
		<defs>
			<path id="SVGID_11_" d="M129,156c0,26.5,21.5,48,48,48s48-21.5,48-48s-21.5-48-48-48S129,129.5,129,156"/>
		</defs>
		<clipPath id="SVGID_12_">
			<use xlink:href="#SVGID_11_"  style="overflow:visible;"/>
		</clipPath>
		<path class="st10" d="M177.1,132.2c26.6,0,48.1-21.5,48.1-48.1c0-26.6-21.5-48.1-48.1-48.1S129,57.5,129,84.1
			C129,110.7,150.5,132.2,177.1,132.2"/>
	</g>
	<g class="st1">
		<defs>
			<path id="SVGID_13_" d="M145.2,120.1c8.5,7.5,19.7,12.1,31.9,12.1c12.2,0,23.3-4.5,31.8-12c-8.5-7.6-19.7-12.2-31.9-12.2
				C164.8,108,153.6,112.6,145.2,120.1"/>
		</defs>
		<clipPath id="SVGID_14_">
			<use xlink:href="#SVGID_13_"  style="overflow:visible;"/>
		</clipPath>
		<path class="st11" d="M105.3,118.3C163.7,118.3,211,71,211,12.6S163.7-93.1,105.3-93.1S-0.4-45.8-0.4,12.6S46.9,118.3,105.3,118.3
			"/>
		<path class="st12" d="M140.8,115.3c31.5-16.3,81.7-1.8,76.2-56.3c0,0,32.1-41.7,34.5-39.9s21.8,12.1,24.2,39.9s13.3,46,0,65.3
			s-12.1,38.1-43.6,38.1s-102.2-5.4-102.2-16.3C129.9,135.2,140.8,115.3,140.8,115.3"/>
	</g>
	<g class="st1">
		<defs>
			<rect id="SVGID_15_" width="226" height="205"/>
		</defs>
		<clipPath id="SVGID_16_">
			<use xlink:href="#SVGID_15_"  style="overflow:visible;"/>
		</clipPath>
		<circle class="st13" cx="177" cy="156" r="48"/>
	</g>
</g>
<g class="st0">
	<g class="st1">
		<defs>
			<rect id="SVGID_17_" x="-1" width="226" height="205"/>
		</defs>
		<clipPath id="SVGID_18_">
			<use xlink:href="#SVGID_17_"  style="overflow:visible;"/>
		</clipPath>
		<path class="st14" d="M64,76c17.7,0,32-2.3,32-20S81.7,24,64,24S32,38.3,32,56S46.3,76,64,76"/>
		<path class="st14" d="M48,144c26.5,0,48-9.5,48-36S74.5,60,48,60S0,81.5,0,108S21.5,144,48,144"/>
		<path class="st14" d="M176,144c-26.5,0-48-9.5-48-36s21.5-48,48-48s48,21.5,48,48S202.5,144,176,144"/>
		<path class="st14" d="M160,76c17.7,0,32-2.3,32-20s-14.3-32-32-32s-32,14.3-32,32S142.3,76,160,76"/>
		<path class="st14" d="M96,60V16c0-8.8-7.2-16-16-16c-8.8,0-16,7.2-16,16v44H96z"/>
		<path class="st14" d="M160,60V16c0-8.8-7.2-16-16-16c-8.8,0-16,7.2-16,16v44H160z"/>
	</g>
	<rect x="64" y="60" class="st3" width="96" height="60"/>
	<rect x="32" y="56" class="st3" width="64" height="52"/>
	<rect x="128" y="56" class="st3" width="64" height="52"/>
	<rect y="110" class="st3" width="96" height="46"/>
	<rect x="128" y="110" class="st3" width="96" height="46"/>
	<g class="st1">
		<defs>
			<rect id="SVGID_19_" x="-1" width="226" height="205"/>
		</defs>
		<clipPath id="SVGID_20_">
			<use xlink:href="#SVGID_19_"  style="overflow:visible;"/>
		</clipPath>
		<path class="st15" d="M48,204c26.5,0,48-21.5,48-48s-21.5-48-48-48S0,129.5,0,156S21.5,204,48,204"/>
	</g>
	<g class="st1">
		<defs>
			<path id="SVGID_21_" d="M0,156c0,26.5,21.5,48,48,48s48-21.5,48-48s-21.5-48-48-48S0,129.5,0,156"/>
		</defs>
		<clipPath id="SVGID_22_">
			<use xlink:href="#SVGID_21_"  style="overflow:visible;"/>
		</clipPath>
		<path class="st16" d="M48.1,168.1c26.6,0,48.1-21.5,48.1-48.1c0-26.6-21.5-48.1-48.1-48.1S0,93.4,0,120
			C0,146.6,21.5,168.1,48.1,168.1"/>
	</g>
	<g class="st1">
		<defs>
			<path id="SVGID_23_" d="M3.5,138c7.1,17.6,24.4,30.1,44.6,30.1c20.1,0,37.3-12.3,44.5-29.8C85.6,120.5,68.2,108,48,108
				C27.9,108,10.6,120.4,3.5,138"/>
		</defs>
		<clipPath id="SVGID_24_">
			<use xlink:href="#SVGID_23_"  style="overflow:visible;"/>
		</clipPath>
		<path class="st17" d="M-23.7,154.2C34.7,154.2,82,106.9,82,48.5S34.7-57.2-23.7-57.2S-129.4-9.9-129.4,48.5
			S-82.1,154.2-23.7,154.2"/>
		<path class="st18" d="M11.8,151.2c31.5-16.3,81.7-1.8,76.2-56.3c0,0,32.1-41.7,34.5-39.9c2.4,1.8,21.8,12.1,24.2,39.9
			c2.4,27.8,13.3,46,0,65.3c-13.3,19.4-12.1,38.1-43.6,38.1S0.9,192.9,0.9,182C0.9,171.1,11.8,151.2,11.8,151.2"/>
	</g>
	<g class="st1">
		<defs>
			<rect id="SVGID_25_" x="-1" width="226" height="205"/>
		</defs>
		<clipPath id="SVGID_26_">
			<use xlink:href="#SVGID_25_"  style="overflow:visible;"/>
		</clipPath>
		<circle class="st19" cx="48" cy="156" r="48"/>
		<path class="st20" d="M176,204c-26.5,0-48-21.5-48-48s21.5-48,48-48s48,21.5,48,48S202.5,204,176,204"/>
	</g>
	<g class="st1">
		<defs>
			<path id="SVGID_27_" d="M128,156c0,26.5,21.5,48,48,48s48-21.5,48-48s-21.5-48-48-48S128,129.5,128,156"/>
		</defs>
		<clipPath id="SVGID_28_">
			<use xlink:href="#SVGID_27_"  style="overflow:visible;"/>
		</clipPath>
		<path class="st21" d="M176.1,168.2c26.6,0,48.1-21.5,48.1-48.1c0-26.6-21.5-48.1-48.1-48.1S128,93.5,128,120.1
			C128,146.7,149.5,168.2,176.1,168.2"/>
	</g>
	<g class="st1">
		<defs>
			<path id="SVGID_29_" d="M131.5,138.1c7.1,17.7,24.4,30.1,44.6,30.1c20.1,0,37.4-12.4,44.5-29.9c-7-17.8-24.4-30.3-44.6-30.3
				C155.8,108,138.6,120.4,131.5,138.1"/>
		</defs>
		<clipPath id="SVGID_30_">
			<use xlink:href="#SVGID_29_"  style="overflow:visible;"/>
		</clipPath>
		<path class="st22" d="M104.3,154.3C162.7,154.3,210,107,210,48.6S162.7-57.1,104.3-57.1S-1.4-9.8-1.4,48.6S45.9,154.3,104.3,154.3
			"/>
		<path class="st23" d="M139.8,151.3c31.5-16.3,81.7-1.8,76.2-56.3c0,0,32.1-41.7,34.5-39.9s21.8,12.1,24.2,39.9s13.3,46,0,65.3
			s-12.1,38.1-43.6,38.1s-102.2-5.4-102.2-16.3C128.9,171.2,139.8,151.3,139.8,151.3"/>
	</g>
	<g class="st1">
		<defs>
			<rect id="SVGID_31_" x="-1" width="226" height="205"/>
		</defs>
		<clipPath id="SVGID_32_">
			<use xlink:href="#SVGID_31_"  style="overflow:visible;"/>
		</clipPath>
		<circle class="st24" cx="176" cy="156" r="48"/>
	</g>
</g>
<g>
	<rect x="97" y="131.5" class="st25" width="63" height="28"/>
	<rect x="65" y="157.5" class="st25" width="128" height="12"/>
	<g>
		<defs>
			<rect id="SVGID_33_" y="-0.5" width="260" height="170.5"/>
		</defs>
		<clipPath id="SVGID_34_">
			<use xlink:href="#SVGID_33_"  style="overflow:visible;"/>
		</clipPath>
		<rect x="65" y="157.5" class="st26" width="128" height="12"/>
		<path class="st27" d="M14,0.5c-0.1,0-13,0.1-13,13v108c0,0.1,0.1,13,13,13h232c0.1,0,13-0.1,13-13v-108c0-0.1-0.1-13-13-13H14z"/>
		<path class="st28" d="M14,0.5c-0.1,0-13,0.1-13,13v108c0,0.1,0.1,13,13,13h232c0.1,0,13-0.1,13-13v-108c0-0.1-0.1-13-13-13H14z"/>
	</g>
	<rect x="14" y="13.5" class="st29" width="232" height="108"/>
	<rect x="162" y="81.5" class="st30" width="32" height="28"/>
	<rect x="130" y="39.5" class="st30" width="32" height="70"/>
	<rect x="34" y="25.5" class="st30" width="32" height="84"/>
	<rect x="194" y="53.5" class="st30" width="32" height="56"/>
	<rect x="66" y="95.5" class="st30" width="32" height="14"/>
	<rect x="98" y="67.5" class="st30" width="32" height="42"/>
</g>
</svg>
