<?xml version="1.0" encoding="utf-8"?>
<!-- Generator: Adobe Illustrator 21.0.0, SVG Export Plug-In . SVG Version: 6.00 Build 0)  -->
<svg version="1.1" id="Layer_1" xmlns="http://www.w3.org/2000/svg" xmlns:xlink="http://www.w3.org/1999/xlink" x="0px" y="0px"
	 viewBox="0 0 764 384" style="enable-background:new 0 0 764 384;" xml:space="preserve">
<style type="text/css">
	.st0{display:none;}
	.st1{display:inline;}
	.st2{clip-path:url(#SVGID_2_);fill:#D0D2D3;}
	.st3{display:inline;fill:#D0D2D3;}
	.st4{clip-path:url(#SVGID_4_);fill:#D0D2D3;}
	.st5{clip-path:url(#SVGID_6_);fill:#D0D2D3;}
	.st6{clip-path:url(#SVGID_8_);fill:#D0D2D3;}
	.st7{clip-path:url(#SVGID_10_);fill:#D0D2D3;}
	.st8{clip-path:url(#SVGID_12_);fill:#D0D2D3;}
	.st9{fill:#D0D2D3;}
	.st10{clip-path:url(#SVGID_14_);fill:#D0D2D3;}
	.st11{clip-path:url(#SVGID_16_);fill:#D0D2D3;}
	.st12{clip-path:url(#SVGID_18_);fill:#D0D2D3;}
	.st13{clip-path:url(#SVGID_20_);fill:#D0D2D3;}
	.st14{clip-path:url(#SVGID_22_);fill:#D0D2D3;}
	.st15{clip-path:url(#SVGID_24_);fill:#D0D2D3;}
	.st16{clip-path:url(#SVGID_26_);fill:#D0D2D3;}
	.st17{clip-path:url(#SVGID_28_);fill:#D0D2D3;}
	.st18{clip-path:url(#SVGID_30_);fill:#D0D2D3;}
	.st19{clip-path:url(#SVGID_32_);fill:#D0D2D3;}
	.st20{clip-path:url(#SVGID_34_);fill:#D0D2D3;}
	.st21{clip-path:url(#SVGID_36_);fill:#D0D2D3;}
	.st22{clip-path:url(#SVGID_38_);fill:#D0D2D3;}
	.st23{clip-path:url(#SVGID_40_);fill:#D0D2D3;}
	.st24{clip-path:url(#SVGID_42_);fill:#D0D2D3;}
	.st25{clip-path:url(#SVGID_44_);fill:#D0D2D3;}
	.st26{clip-path:url(#SVGID_46_);fill:#D0D2D3;}
	.st27{clip-path:url(#SVGID_48_);fill:#D0D2D3;}
	.st28{clip-path:url(#SVGID_50_);fill:#D0D2D3;}
	.st29{clip-path:url(#SVGID_52_);fill:#D0D2D3;}
	.st30{clip-path:url(#SVGID_54_);fill:#D0D2D3;}
</style>
<g class="st0">
	<g class="st1">
		<defs>
			<rect id="SVGID_1_" width="764" height="384"/>
		</defs>
		<clipPath id="SVGID_2_">
			<use xlink:href="#SVGID_1_"  style="overflow:visible;"/>
		</clipPath>
		<path class="st2" d="M719,84c3.3,0,6-2.7,6-6c0-3.3-2.7-6-6-6c-3.3,0-6,2.7-6,6C713,81.3,715.7,84,719,84"/>
	</g>
	<rect x="713" y="86" class="st3" width="12" height="22"/>
	<rect x="713" y="86" class="st3" width="12" height="22"/>
	<polygon class="st3" points="713,108 713,132 718,132 719,108 	"/>
	<polygon class="st3" points="719,108 720,132 725,132 725,108 	"/>
	<polygon class="st3" points="713,108 713,132 718,132 719,108 	"/>
	<polygon class="st3" points="713,86 705,109 708,110 717,86 	"/>
	<polygon class="st3" points="725,86 733,109 730,110 721,86 	"/>
	<g class="st1">
		<defs>
			<rect id="SVGID_3_" width="764" height="384"/>
		</defs>
		<clipPath id="SVGID_4_">
			<use xlink:href="#SVGID_3_"  style="overflow:visible;"/>
		</clipPath>
		<path class="st4" d="M205,12c3.3,0,6-2.7,6-6c0-3.3-2.7-6-6-6c-3.3,0-6,2.7-6,6C199,9.3,201.7,12,205,12"/>
	</g>
	<rect x="199" y="14" class="st3" width="12" height="22"/>
	<rect x="199" y="14" class="st3" width="12" height="22"/>
	<polygon class="st3" points="199,36 199,60 204,60 205,36 	"/>
	<polygon class="st3" points="205,36 206,60 211,60 211,36 	"/>
	<polygon class="st3" points="199,36 199,60 204,60 205,36 	"/>
	<polygon class="st3" points="199,14 191,37 194,38 203,14 	"/>
	<polygon class="st3" points="211,14 219,37 216,38 207,14 	"/>
	<g class="st1">
		<defs>
			<rect id="SVGID_5_" width="764" height="384"/>
		</defs>
		<clipPath id="SVGID_6_">
			<use xlink:href="#SVGID_5_"  style="overflow:visible;"/>
		</clipPath>
		<path class="st5" d="M750,228c3.3,0,6-2.7,6-6c0-3.3-2.7-6-6-6c-3.3,0-6,2.7-6,6C744,225.3,746.7,228,750,228"/>
	</g>
	<rect x="744" y="230" class="st3" width="12" height="22"/>
	<rect x="744" y="230" class="st3" width="12" height="22"/>
	<polygon class="st3" points="744,252 744,276 749,276 750,252 	"/>
	<polygon class="st3" points="750,252 751,276 756,276 756,252 	"/>
	<polygon class="st3" points="744,252 744,276 749,276 750,252 	"/>
	<polygon class="st3" points="744,230 736,253 739,254 748,230 	"/>
	<polygon class="st3" points="752,230 761,254 764,253 756,230 	"/>
	<g class="st1">
		<defs>
			<rect id="SVGID_7_" width="764" height="384"/>
		</defs>
		<clipPath id="SVGID_8_">
			<use xlink:href="#SVGID_7_"  style="overflow:visible;"/>
		</clipPath>
		<path class="st6" d="M430,336c3.3,0,6-2.7,6-6s-2.7-6-6-6c-3.3,0-6,2.7-6,6S426.7,336,430,336"/>
	</g>
	<rect x="424" y="338" class="st3" width="12" height="22"/>
	<rect x="424" y="338" class="st3" width="12" height="22"/>
	<polygon class="st3" points="424,360 424,384 429,384 430,360 	"/>
	<polygon class="st3" points="430,360 431,384 436,384 436,360 	"/>
	<polygon class="st3" points="424,360 424,384 429,384 430,360 	"/>
	<polygon class="st3" points="424,338 416,361 419,362 428,338 	"/>
	<polygon class="st3" points="436,338 444,361 441,362 432,338 	"/>
	<g class="st1">
		<defs>
			<rect id="SVGID_9_" width="764" height="384"/>
		</defs>
		<clipPath id="SVGID_10_">
			<use xlink:href="#SVGID_9_"  style="overflow:visible;"/>
		</clipPath>
		<path class="st7" d="M14,156c3.3,0,6-2.7,6-6c0-3.3-2.7-6-6-6s-6,2.7-6,6C8,153.3,10.7,156,14,156"/>
	</g>
	<rect x="8" y="158" class="st3" width="12" height="22"/>
	<rect x="8" y="158" class="st3" width="12" height="22"/>
	<polygon class="st3" points="8,180 8,204 13,204 14,180 	"/>
	<polygon class="st3" points="14,180 15,204 20,204 20,180 	"/>
	<polygon class="st3" points="8,180 8,204 13,204 14,180 	"/>
	<polygon class="st3" points="8,158 0,181 3,182 12,158 	"/>
	<polygon class="st3" points="20,158 28,181 25,182 16,158 	"/>
</g>
<g>
	<g>
		<defs>
			<rect id="SVGID_11_" x="33" width="700" height="384"/>
		</defs>
		<clipPath id="SVGID_12_">
			<use xlink:href="#SVGID_11_"  style="overflow:visible;"/>
		</clipPath>
		<path class="st8" d="M399,12c3.3,0,6-2.7,6-6c0-3.3-2.7-6-6-6c-3.3,0-6,2.7-6,6C393,9.3,395.7,12,399,12"/>
	</g>
	<rect x="393" y="14" class="st9" width="12" height="22"/>
	<rect x="393" y="14" class="st9" width="12" height="22"/>
	<polygon class="st9" points="393,36 393,60 398,60 399,36 	"/>
	<polygon class="st9" points="399,36 400,60 405,60 405,36 	"/>
	<polygon class="st9" points="393,36 393,60 398,60 399,36 	"/>
	<polygon class="st9" points="393,14 385,37 388,38 397,14 	"/>
	<polygon class="st9" points="405,14 413,37 410,38 401,14 	"/>
	<g>
		<defs>
			<rect id="SVGID_13_" x="33" width="700" height="384"/>
		</defs>
		<clipPath id="SVGID_14_">
			<use xlink:href="#SVGID_13_"  style="overflow:visible;"/>
		</clipPath>
		<path class="st10" d="M143,12c3.3,0,6-2.7,6-6c0-3.3-2.7-6-6-6s-6,2.7-6,6C137,9.3,139.7,12,143,12"/>
	</g>
	<rect x="137" y="14" class="st9" width="12" height="22"/>
	<rect x="137" y="14" class="st9" width="12" height="22"/>
	<polygon class="st9" points="137,36 137,60 142,60 143,36 	"/>
	<polygon class="st9" points="143,36 144,60 149,60 149,36 	"/>
	<polygon class="st9" points="137,36 137,60 142,60 143,36 	"/>
	<polygon class="st9" points="137,14 129,37 132,38 141,14 	"/>
	<polygon class="st9" points="149,14 157,37 154,38 145,14 	"/>
	<g>
		<defs>
			<rect id="SVGID_15_" x="33" width="700" height="384"/>
		</defs>
		<clipPath id="SVGID_16_">
			<use xlink:href="#SVGID_15_"  style="overflow:visible;"/>
		</clipPath>
		<path class="st11" d="M526,12c3.3,0,6-2.7,6-6c0-3.3-2.7-6-6-6c-3.3,0-6,2.7-6,6C520,9.3,522.7,12,526,12"/>
	</g>
	<rect x="520" y="14" class="st9" width="12" height="22"/>
	<rect x="520" y="14" class="st9" width="12" height="22"/>
	<polygon class="st9" points="520,36 520,60 525,60 526,36 	"/>
	<polygon class="st9" points="526,36 527,60 532,60 532,36 	"/>
	<polygon class="st9" points="520,36 520,60 525,60 526,36 	"/>
	<polygon class="st9" points="520,14 512,37 515,38 524,14 	"/>
	<polygon class="st9" points="532,14 540,37 537,38 528,14 	"/>
	<g>
		<defs>
			<rect id="SVGID_17_" x="33" width="700" height="384"/>
		</defs>
		<clipPath id="SVGID_18_">
			<use xlink:href="#SVGID_17_"  style="overflow:visible;"/>
		</clipPath>
		<path class="st12" d="M592,12c3.3,0,6-2.7,6-6c0-3.3-2.7-6-6-6c-3.3,0-6,2.7-6,6C586,9.3,588.7,12,592,12"/>
	</g>
	<rect x="586" y="14" class="st9" width="12" height="22"/>
	<rect x="586" y="14" class="st9" width="12" height="22"/>
	<polygon class="st9" points="586,36 586,60 591,60 592,36 	"/>
	<polygon class="st9" points="592,36 593,60 598,60 598,36 	"/>
	<polygon class="st9" points="586,36 586,60 591,60 592,36 	"/>
	<polygon class="st9" points="586,14 578,37 581,38 590,14 	"/>
	<polygon class="st9" points="598,14 606,37 603,38 594,14 	"/>
	<g>
		<defs>
			<rect id="SVGID_19_" x="33" width="700" height="384"/>
		</defs>
		<clipPath id="SVGID_20_">
			<use xlink:href="#SVGID_19_"  style="overflow:visible;"/>
		</clipPath>
		<path class="st13" d="M238,48c3.3,0,6-2.7,6-6c0-3.3-2.7-6-6-6c-3.3,0-6,2.7-6,6C232,45.3,234.7,48,238,48"/>
	</g>
	<rect x="232" y="50" class="st9" width="12" height="22"/>
	<rect x="232" y="50" class="st9" width="12" height="22"/>
	<polygon class="st9" points="232,72 232,96 237,96 238,72 	"/>
	<polygon class="st9" points="238,72 239,96 244,96 244,72 	"/>
	<polygon class="st9" points="232,72 232,96 237,96 238,72 	"/>
	<polygon class="st9" points="232,50 224,73 227,74 236,50 	"/>
	<polygon class="st9" points="244,50 252,73 249,74 240,50 	"/>
	<g>
		<defs>
			<rect id="SVGID_21_" x="33" width="700" height="384"/>
		</defs>
		<clipPath id="SVGID_22_">
			<use xlink:href="#SVGID_21_"  style="overflow:visible;"/>
		</clipPath>
		<path class="st14" d="M143,156c3.3,0,6-2.7,6-6c0-3.3-2.7-6-6-6s-6,2.7-6,6C137,153.3,139.7,156,143,156"/>
	</g>
	<rect x="137" y="158" class="st9" width="12" height="22"/>
	<rect x="137" y="158" class="st9" width="12" height="22"/>
	<polygon class="st9" points="137,180 137,204 142,204 143,180 	"/>
	<polygon class="st9" points="143,180 144,204 149,204 149,180 	"/>
	<polygon class="st9" points="137,180 137,204 142,204 143,180 	"/>
	<polygon class="st9" points="137,158 129,181 132,182 141,158 	"/>
	<polygon class="st9" points="149,158 157,181 154,182 145,158 	"/>
	<g>
		<defs>
			<rect id="SVGID_23_" x="33" width="700" height="384"/>
		</defs>
		<clipPath id="SVGID_24_">
			<use xlink:href="#SVGID_23_"  style="overflow:visible;"/>
		</clipPath>
		<path class="st15" d="M655,156c3.3,0,6-2.7,6-6c0-3.3-2.7-6-6-6c-3.3,0-6,2.7-6,6C649,153.3,651.7,156,655,156"/>
	</g>
	<rect x="649" y="158" class="st9" width="12" height="22"/>
	<rect x="649" y="158" class="st9" width="12" height="22"/>
	<polygon class="st9" points="649,180 649,204 654,204 655,180 	"/>
	<polygon class="st9" points="655,180 656,204 661,204 661,180 	"/>
	<polygon class="st9" points="649,180 649,204 654,204 655,180 	"/>
	<polygon class="st9" points="649,158 641,181 644,182 653,158 	"/>
	<polygon class="st9" points="661,158 669,181 666,182 657,158 	"/>
	<g>
		<defs>
			<rect id="SVGID_25_" x="33" width="700" height="384"/>
		</defs>
		<clipPath id="SVGID_26_">
			<use xlink:href="#SVGID_25_"  style="overflow:visible;"/>
		</clipPath>
		<path class="st16" d="M47,48c3.3,0,6-2.7,6-6c0-3.3-2.7-6-6-6s-6,2.7-6,6C41,45.3,43.7,48,47,48"/>
	</g>
	<rect x="41" y="50" class="st9" width="12" height="22"/>
	<rect x="41" y="50" class="st9" width="12" height="22"/>
	<polygon class="st9" points="41,72 41,96 46,96 47,72 	"/>
	<polygon class="st9" points="47,72 48,96 53,96 53,72 	"/>
	<polygon class="st9" points="41,72 41,96 46,96 47,72 	"/>
	<polygon class="st9" points="41,50 33,73 36,74 45,50 	"/>
	<polygon class="st9" points="53,50 61,73 58,74 49,50 	"/>
	<g>
		<defs>
			<rect id="SVGID_27_" x="33" width="700" height="384"/>
		</defs>
		<clipPath id="SVGID_28_">
			<use xlink:href="#SVGID_27_"  style="overflow:visible;"/>
		</clipPath>
		<path class="st17" d="M335,84c3.3,0,6-2.7,6-6c0-3.3-2.7-6-6-6c-3.3,0-6,2.7-6,6C329,81.3,331.7,84,335,84"/>
	</g>
	<rect x="329" y="86" class="st9" width="12" height="22"/>
	<rect x="329" y="86" class="st9" width="12" height="22"/>
	<polygon class="st9" points="329,108 329,132 334,132 335,108 	"/>
	<polygon class="st9" points="335,108 336,132 341,132 341,108 	"/>
	<polygon class="st9" points="329,108 329,132 334,132 335,108 	"/>
	<polygon class="st9" points="329,86 321,109 324,110 333,86 	"/>
	<polygon class="st9" points="341,86 349,109 346,110 337,86 	"/>
	<g>
		<defs>
			<rect id="SVGID_29_" x="33" width="700" height="384"/>
		</defs>
		<clipPath id="SVGID_30_">
			<use xlink:href="#SVGID_29_"  style="overflow:visible;"/>
		</clipPath>
		<path class="st18" d="M558,120c3.3,0,6-2.7,6-6c0-3.3-2.7-6-6-6c-3.3,0-6,2.7-6,6C552,117.3,554.7,120,558,120"/>
	</g>
	<rect x="552" y="122" class="st9" width="12" height="22"/>
	<rect x="552" y="122" class="st9" width="12" height="22"/>
	<polygon class="st9" points="552,144 552,168 557,168 558,144 	"/>
	<polygon class="st9" points="558,144 559,168 564,168 564,144 	"/>
	<polygon class="st9" points="552,144 552,168 557,168 558,144 	"/>
	<polygon class="st9" points="552,122 544,145 547,146 556,122 	"/>
	<polygon class="st9" points="564,122 572,145 569,146 560,122 	"/>
	<g>
		<defs>
			<rect id="SVGID_31_" x="33" width="700" height="384"/>
		</defs>
		<clipPath id="SVGID_32_">
			<use xlink:href="#SVGID_31_"  style="overflow:visible;"/>
		</clipPath>
		<path class="st19" d="M79,228c3.3,0,6-2.7,6-6c0-3.3-2.7-6-6-6c-3.3,0-6,2.7-6,6C73,225.3,75.7,228,79,228"/>
	</g>
	<rect x="73" y="230" class="st9" width="12" height="22"/>
	<rect x="73" y="230" class="st9" width="12" height="22"/>
	<polygon class="st9" points="73,252 73,276 78,276 79,252 	"/>
	<polygon class="st9" points="79,252 80,276 85,276 85,252 	"/>
	<polygon class="st9" points="73,252 73,276 78,276 79,252 	"/>
	<polygon class="st9" points="73,230 65,253 68,254 77,230 	"/>
	<polygon class="st9" points="85,230 93,253 90,254 81,230 	"/>
	<g>
		<defs>
			<rect id="SVGID_33_" x="33" width="700" height="384"/>
		</defs>
		<clipPath id="SVGID_34_">
			<use xlink:href="#SVGID_33_"  style="overflow:visible;"/>
		</clipPath>
		<path class="st20" d="M399,156c3.3,0,6-2.7,6-6c0-3.3-2.7-6-6-6c-3.3,0-6,2.7-6,6C393,153.3,395.7,156,399,156"/>
	</g>
	<rect x="393" y="158" class="st9" width="12" height="22"/>
	<rect x="393" y="158" class="st9" width="12" height="22"/>
	<polygon class="st9" points="393,180 393,204 398,204 399,180 	"/>
	<polygon class="st9" points="399,180 400,204 405,204 405,180 	"/>
	<polygon class="st9" points="393,180 393,204 398,204 399,180 	"/>
	<polygon class="st9" points="393,158 385,181 388,182 397,158 	"/>
	<polygon class="st9" points="405,158 413,181 410,182 401,158 	"/>
	<g>
		<defs>
			<rect id="SVGID_35_" x="33" width="700" height="384"/>
		</defs>
		<clipPath id="SVGID_36_">
			<use xlink:href="#SVGID_35_"  style="overflow:visible;"/>
		</clipPath>
		<path class="st21" d="M463,156c3.3,0,6-2.7,6-6c0-3.3-2.7-6-6-6c-3.3,0-6,2.7-6,6C457,153.3,459.7,156,463,156"/>
	</g>
	<rect x="457" y="158" class="st9" width="12" height="22"/>
	<rect x="457" y="158" class="st9" width="12" height="22"/>
	<polygon class="st9" points="457,180 457,204 462,204 463,180 	"/>
	<polygon class="st9" points="463,180 464,204 469,204 469,180 	"/>
	<polygon class="st9" points="457,180 457,204 462,204 463,180 	"/>
	<polygon class="st9" points="457,158 449,181 452,182 461,158 	"/>
	<polygon class="st9" points="469,158 477,181 474,182 465,158 	"/>
	<g>
		<defs>
			<rect id="SVGID_37_" x="33" width="700" height="384"/>
		</defs>
		<clipPath id="SVGID_38_">
			<use xlink:href="#SVGID_37_"  style="overflow:visible;"/>
		</clipPath>
		<path class="st22" d="M526,228c3.3,0,6-2.7,6-6c0-3.3-2.7-6-6-6c-3.3,0-6,2.7-6,6C520,225.3,522.7,228,526,228"/>
	</g>
	<rect x="520" y="230" class="st9" width="12" height="22"/>
	<rect x="520" y="230" class="st9" width="12" height="22"/>
	<polygon class="st9" points="520,252 520,276 525,276 526,252 	"/>
	<polygon class="st9" points="526,252 527,276 532,276 532,252 	"/>
	<polygon class="st9" points="520,252 520,276 525,276 526,252 	"/>
	<polygon class="st9" points="520,230 512,253 515,254 524,230 	"/>
	<polygon class="st9" points="532,230 540,253 537,254 528,230 	"/>
	<g>
		<defs>
			<rect id="SVGID_39_" x="33" width="700" height="384"/>
		</defs>
		<clipPath id="SVGID_40_">
			<use xlink:href="#SVGID_39_"  style="overflow:visible;"/>
		</clipPath>
		<path class="st23" d="M272,228c3.3,0,6-2.7,6-6c0-3.3-2.7-6-6-6c-3.3,0-6,2.7-6,6C266,225.3,268.7,228,272,228"/>
	</g>
	<rect x="266" y="230" class="st9" width="12" height="22"/>
	<rect x="266" y="230" class="st9" width="12" height="22"/>
	<polygon class="st9" points="266,252 266,276 271,276 272,252 	"/>
	<polygon class="st9" points="272,252 273,276 278,276 278,252 	"/>
	<polygon class="st9" points="266,252 266,276 271,276 272,252 	"/>
	<polygon class="st9" points="266,230 258,253 261,254 270,230 	"/>
	<polygon class="st9" points="278,230 286,253 283,254 274,230 	"/>
	<g>
		<defs>
			<rect id="SVGID_41_" x="33" width="700" height="384"/>
		</defs>
		<clipPath id="SVGID_42_">
			<use xlink:href="#SVGID_41_"  style="overflow:visible;"/>
		</clipPath>
		<path class="st24" d="M335,228c3.3,0,6-2.7,6-6c0-3.3-2.7-6-6-6c-3.3,0-6,2.7-6,6C329,225.3,331.7,228,335,228"/>
	</g>
	<rect x="329" y="230" class="st9" width="12" height="22"/>
	<rect x="329" y="230" class="st9" width="12" height="22"/>
	<polygon class="st9" points="329,252 329,276 334,276 335,252 	"/>
	<polygon class="st9" points="335,252 336,276 341,276 341,252 	"/>
	<polygon class="st9" points="329,252 329,276 334,276 335,252 	"/>
	<polygon class="st9" points="329,230 321,253 324,254 333,230 	"/>
	<polygon class="st9" points="341,230 349,253 346,254 337,230 	"/>
	<g>
		<defs>
			<rect id="SVGID_43_" x="33" width="700" height="384"/>
		</defs>
		<clipPath id="SVGID_44_">
			<use xlink:href="#SVGID_43_"  style="overflow:visible;"/>
		</clipPath>
		<path class="st25" d="M655,228c3.3,0,6-2.7,6-6c0-3.3-2.7-6-6-6c-3.3,0-6,2.7-6,6C649,225.3,651.7,228,655,228"/>
	</g>
	<rect x="649" y="230" class="st9" width="12" height="22"/>
	<rect x="649" y="230" class="st9" width="12" height="22"/>
	<polygon class="st9" points="649,252 649,276 654,276 655,252 	"/>
	<polygon class="st9" points="655,252 656,276 661,276 661,252 	"/>
	<polygon class="st9" points="649,252 649,276 654,276 655,252 	"/>
	<polygon class="st9" points="649,230 641,253 644,254 653,230 	"/>
	<polygon class="st9" points="661,230 669,253 666,254 657,230 	"/>
	<g>
		<defs>
			<rect id="SVGID_45_" x="33" width="700" height="384"/>
		</defs>
		<clipPath id="SVGID_46_">
			<use xlink:href="#SVGID_45_"  style="overflow:visible;"/>
		</clipPath>
		<path class="st26" d="M495,264c3.3,0,6-2.7,6-6s-2.7-6-6-6c-3.3,0-6,2.7-6,6S491.7,264,495,264"/>
	</g>
	<rect x="489" y="266" class="st9" width="12" height="22"/>
	<rect x="489" y="266" class="st9" width="12" height="22"/>
	<polygon class="st9" points="489,288 489,312 494,312 495,288 	"/>
	<polygon class="st9" points="495,288 496,312 501,312 501,288 	"/>
	<polygon class="st9" points="489,288 489,312 494,312 495,288 	"/>
	<polygon class="st9" points="489,266 481,289 484,290 493,266 	"/>
	<polygon class="st9" points="501,266 509,289 506,290 497,266 	"/>
	<g>
		<defs>
			<rect id="SVGID_47_" x="33" width="700" height="384"/>
		</defs>
		<clipPath id="SVGID_48_">
			<use xlink:href="#SVGID_47_"  style="overflow:visible;"/>
		</clipPath>
		<path class="st27" d="M399,300c3.3,0,6-2.7,6-6s-2.7-6-6-6c-3.3,0-6,2.7-6,6S395.7,300,399,300"/>
	</g>
	<rect x="393" y="302" class="st9" width="12" height="22"/>
	<rect x="393" y="302" class="st9" width="12" height="22"/>
	<polygon class="st9" points="393,324 393,348 398,348 399,324 	"/>
	<polygon class="st9" points="399,324 400,348 405,348 405,324 	"/>
	<polygon class="st9" points="393,324 393,348 398,348 399,324 	"/>
	<polygon class="st9" points="393,302 385,325 388,326 397,302 	"/>
	<polygon class="st9" points="405,302 413,325 410,326 401,302 	"/>
	<g>
		<defs>
			<rect id="SVGID_49_" x="33" width="700" height="384"/>
		</defs>
		<clipPath id="SVGID_50_">
			<use xlink:href="#SVGID_49_"  style="overflow:visible;"/>
		</clipPath>
		<path class="st28" d="M719,156c3.3,0,6-2.7,6-6c0-3.3-2.7-6-6-6c-3.3,0-6,2.7-6,6C713,153.3,715.7,156,719,156"/>
	</g>
	<rect x="713" y="158" class="st9" width="12" height="22"/>
	<rect x="713" y="158" class="st9" width="12" height="22"/>
	<polygon class="st9" points="713,180 713,204 718,204 719,180 	"/>
	<polygon class="st9" points="719,180 720,204 725,204 725,180 	"/>
	<polygon class="st9" points="713,180 713,204 718,204 719,180 	"/>
	<polygon class="st9" points="713,158 705,181 708,182 717,158 	"/>
	<polygon class="st9" points="721,158 730,182 733,181 725,158 	"/>
	<g>
		<defs>
			<rect id="SVGID_51_" x="33" width="700" height="384"/>
		</defs>
		<clipPath id="SVGID_52_">
			<use xlink:href="#SVGID_51_"  style="overflow:visible;"/>
		</clipPath>
		<path class="st29" d="M558,336c3.3,0,6-2.7,6-6s-2.7-6-6-6c-3.3,0-6,2.7-6,6S554.7,336,558,336"/>
	</g>
	<rect x="552" y="338" class="st9" width="12" height="22"/>
	<rect x="552" y="338" class="st9" width="12" height="22"/>
	<polygon class="st9" points="552,360 552,384 557,384 558,360 	"/>
	<polygon class="st9" points="558,360 559,384 564,384 564,360 	"/>
	<polygon class="st9" points="552,360 552,384 557,384 558,360 	"/>
	<polygon class="st9" points="552,338 544,361 547,362 556,338 	"/>
	<polygon class="st9" points="564,338 572,361 569,362 560,338 	"/>
	<g>
		<defs>
			<rect id="SVGID_53_" x="33" width="700" height="384"/>
		</defs>
		<clipPath id="SVGID_54_">
			<use xlink:href="#SVGID_53_"  style="overflow:visible;"/>
		</clipPath>
		<path class="st30" d="M304,336c3.3,0,6-2.7,6-6s-2.7-6-6-6c-3.3,0-6,2.7-6,6S300.7,336,304,336"/>
	</g>
	<rect x="298" y="338" class="st9" width="12" height="22"/>
	<rect x="298" y="338" class="st9" width="12" height="22"/>
	<polygon class="st9" points="298,360 298,384 303,384 304,360 	"/>
	<polygon class="st9" points="304,360 305,384 310,384 310,360 	"/>
	<polygon class="st9" points="298,360 298,384 303,384 304,360 	"/>
	<polygon class="st9" points="298,338 290,361 293,362 302,338 	"/>
	<polygon class="st9" points="310,338 318,361 315,362 306,338 	"/>
</g>
</svg>
