<?xml version="1.0" encoding="utf-8"?>
<!-- Generator: Adobe Illustrator 21.0.0, SVG Export Plug-In . SVG Version: 6.00 Build 0)  -->
<svg version="1.1" id="Layer_1" xmlns="http://www.w3.org/2000/svg" xmlns:xlink="http://www.w3.org/1999/xlink" x="0px" y="0px"
	 viewBox="0 0 184 184" style="enable-background:new 0 0 184 184;" xml:space="preserve">
<style type="text/css">
	.st0{display:none;}
	.st1{display:inline;}
	.st2{clip-path:url(#SVGID_2_);fill:#D0D2D3;}
	.st3{display:inline;fill:#D0D2D3;}
	.st4{clip-path:url(#SVGID_4_);fill:#D0D2D3;}
	.st5{clip-path:url(#SVGID_6_);fill:#FFFFFF;}
	.st6{clip-path:url(#SVGID_8_);fill:#E51E28;}
	.st7{clip-path:url(#SVGID_8_);fill:#929497;}
	.st8{clip-path:url(#SVGID_10_);fill:none;stroke:#FFFFFF;stroke-width:2;stroke-miterlimit:10;}
	.st9{clip-path:url(#SVGID_10_);fill:#D0D2D3;}
	.st10{clip-path:url(#SVGID_12_);fill:#FFFFFF;}
	.st11{clip-path:url(#SVGID_14_);fill:#E51E28;}
	.st12{clip-path:url(#SVGID_14_);fill:#929497;}
	.st13{clip-path:url(#SVGID_16_);fill:none;stroke:#FFFFFF;stroke-width:2;stroke-miterlimit:10;}
	.st14{clip-path:url(#SVGID_18_);fill:#D0D2D3;}
	.st15{clip-path:url(#SVGID_20_);fill:#D0D2D3;}
	.st16{clip-path:url(#SVGID_22_);fill:#FFFFFF;}
	.st17{clip-path:url(#SVGID_24_);fill:#E51E28;}
	.st18{clip-path:url(#SVGID_24_);fill:#0046FF;}
	.st19{clip-path:url(#SVGID_26_);fill:none;stroke:#FFFFFF;stroke-width:2;stroke-miterlimit:10;}
	.st20{clip-path:url(#SVGID_26_);fill:#D0D2D3;}
	.st21{clip-path:url(#SVGID_28_);fill:#FFFFFF;}
	.st22{clip-path:url(#SVGID_30_);fill:#E51E28;}
	.st23{clip-path:url(#SVGID_30_);fill:#0046FF;}
	.st24{clip-path:url(#SVGID_32_);fill:none;stroke:#FFFFFF;stroke-width:2;stroke-miterlimit:10;}
	.st25{clip-path:url(#SVGID_34_);fill:none;stroke:#FFFFFF;stroke-miterlimit:10;}
	.st26{clip-path:url(#SVGID_34_);fill:#D0D2D3;}
	.st27{clip-path:url(#SVGID_34_);fill:none;stroke:#FFFFFF;stroke-width:2;stroke-miterlimit:10;}
	.st28{display:inline;fill:#FFFFFF;}
	.st29{display:inline;fill:#0046FF;}
	.st30{clip-path:url(#SVGID_36_);fill:#D0D2D3;}
	.st31{clip-path:url(#SVGID_36_);fill:none;stroke:#FFFFFF;stroke-width:2;stroke-miterlimit:10;}
	.st32{clip-path:url(#SVGID_38_);fill:none;stroke:#FFFFFF;stroke-miterlimit:10;}
	.st33{display:inline;fill:#929497;}
	.st34{clip-path:url(#SVGID_40_);fill:#D0D2D3;}
	.st35{clip-path:url(#SVGID_40_);fill:#FFFFFF;}
	.st36{fill:#FFFFFF;}
	.st37{fill:#D0D2D3;}
</style>
<g class="st0">
	<g class="st1">
		<defs>
			<rect id="SVGID_1_" x="2" width="226" height="205"/>
		</defs>
		<clipPath id="SVGID_2_">
			<use xlink:href="#SVGID_1_"  style="overflow:visible;"/>
		</clipPath>
		<path class="st2" d="M67,76c17.7,0,32-2.3,32-20S84.7,24,67,24S35,38.3,35,56S49.3,76,67,76"/>
		<path class="st2" d="M51,144c26.5,0,48-9.5,48-36S77.5,60,51,60S3,81.5,3,108S24.5,144,51,144"/>
		<path class="st2" d="M179,144c-26.5,0-48-9.5-48-36s21.5-48,48-48s48,21.5,48,48S205.5,144,179,144"/>
		<path class="st2" d="M163,76c17.7,0,32-2.3,32-20s-14.3-32-32-32s-32,14.3-32,32S145.3,76,163,76"/>
		<path class="st2" d="M99,60V16c0-8.8-7.2-16-16-16c-8.8,0-16,7.2-16,16v44H99z"/>
		<path class="st2" d="M163,60V16c0-8.8-7.2-16-16-16c-8.8,0-16,7.2-16,16v44H163z"/>
	</g>
	<rect x="67" y="60" class="st3" width="96" height="60"/>
	<rect x="35" y="56" class="st3" width="64" height="52"/>
	<rect x="131" y="56" class="st3" width="64" height="52"/>
	<rect x="3" y="110" class="st3" width="96" height="46"/>
	<rect x="131" y="110" class="st3" width="96" height="46"/>
	<g class="st1">
		<defs>
			<rect id="SVGID_3_" x="2" width="226" height="205"/>
		</defs>
		<clipPath id="SVGID_4_">
			<use xlink:href="#SVGID_3_"  style="overflow:visible;"/>
		</clipPath>
		<path class="st4" d="M51,204c26.5,0,48-21.5,48-48s-21.5-48-48-48S3,129.5,3,156S24.5,204,51,204"/>
	</g>
	<g class="st1">
		<defs>
			<path id="SVGID_5_" d="M3,156c0,26.5,21.5,48,48,48s48-21.5,48-48s-21.5-48-48-48S3,129.5,3,156"/>
		</defs>
		<clipPath id="SVGID_6_">
			<use xlink:href="#SVGID_5_"  style="overflow:visible;"/>
		</clipPath>
		<path class="st5" d="M51.1,132.1c26.6,0,48.1-21.5,48.1-48.1c0-26.6-21.5-48.1-48.1-48.1S3,57.4,3,84
			C3,110.6,24.5,132.1,51.1,132.1"/>
	</g>
	<g class="st1">
		<defs>
			<path id="SVGID_7_" d="M19.2,120c8.5,7.5,19.6,12.1,31.9,12.1c12.2,0,23.3-4.5,31.8-12C74.4,112.6,63.2,108,51,108
				C38.8,108,27.7,112.5,19.2,120"/>
		</defs>
		<clipPath id="SVGID_8_">
			<use xlink:href="#SVGID_7_"  style="overflow:visible;"/>
		</clipPath>
		<path class="st6" d="M-20.7,118.2C37.7,118.2,85,70.9,85,12.5S37.7-93.2-20.7-93.2S-126.4-45.9-126.4,12.5S-79.1,118.2-20.7,118.2
			"/>
		<path class="st7" d="M14.8,115.2c31.5-16.3,81.7-1.8,76.2-56.3c0,0,32.1-41.7,34.5-39.9c2.4,1.8,21.8,12.1,24.2,39.9
			c2.4,27.8,13.3,46,0,65.3c-13.3,19.4-12.1,38.1-43.6,38.1S3.9,156.9,3.9,146C3.9,135.1,14.8,115.2,14.8,115.2"/>
	</g>
	<g class="st1">
		<defs>
			<rect id="SVGID_9_" x="2" width="226" height="205"/>
		</defs>
		<clipPath id="SVGID_10_">
			<use xlink:href="#SVGID_9_"  style="overflow:visible;"/>
		</clipPath>
		<circle class="st8" cx="51" cy="156" r="48"/>
		<path class="st9" d="M179,204c-26.5,0-48-21.5-48-48s21.5-48,48-48s48,21.5,48,48S205.5,204,179,204"/>
	</g>
	<g class="st1">
		<defs>
			<path id="SVGID_11_" d="M131,156c0,26.5,21.5,48,48,48s48-21.5,48-48s-21.5-48-48-48S131,129.5,131,156"/>
		</defs>
		<clipPath id="SVGID_12_">
			<use xlink:href="#SVGID_11_"  style="overflow:visible;"/>
		</clipPath>
		<path class="st10" d="M179.1,132.2c26.6,0,48.1-21.5,48.1-48.1c0-26.6-21.5-48.1-48.1-48.1S131,57.5,131,84.1
			C131,110.7,152.5,132.2,179.1,132.2"/>
	</g>
	<g class="st1">
		<defs>
			<path id="SVGID_13_" d="M147.2,120.1c8.5,7.5,19.7,12.1,31.9,12.1c12.2,0,23.3-4.5,31.8-12c-8.5-7.6-19.7-12.2-31.9-12.2
				C166.8,108,155.6,112.6,147.2,120.1"/>
		</defs>
		<clipPath id="SVGID_14_">
			<use xlink:href="#SVGID_13_"  style="overflow:visible;"/>
		</clipPath>
		<path class="st11" d="M107.3,118.3C165.7,118.3,213,71,213,12.6S165.7-93.1,107.3-93.1S1.6-45.8,1.6,12.6S48.9,118.3,107.3,118.3"
			/>
		<path class="st12" d="M142.8,115.3c31.5-16.3,81.7-1.8,76.2-56.3c0,0,32.1-41.7,34.5-39.9s21.8,12.1,24.2,39.9s13.3,46,0,65.3
			s-12.1,38.1-43.6,38.1s-102.2-5.4-102.2-16.3C131.9,135.2,142.8,115.3,142.8,115.3"/>
	</g>
	<g class="st1">
		<defs>
			<rect id="SVGID_15_" x="2" width="226" height="205"/>
		</defs>
		<clipPath id="SVGID_16_">
			<use xlink:href="#SVGID_15_"  style="overflow:visible;"/>
		</clipPath>
		<circle class="st13" cx="179" cy="156" r="48"/>
	</g>
</g>
<g class="st0">
	<g class="st1">
		<defs>
			<rect id="SVGID_17_" x="1" width="226" height="205"/>
		</defs>
		<clipPath id="SVGID_18_">
			<use xlink:href="#SVGID_17_"  style="overflow:visible;"/>
		</clipPath>
		<path class="st14" d="M66,76c17.7,0,32-2.3,32-20S83.7,24,66,24S34,38.3,34,56S48.3,76,66,76"/>
		<path class="st14" d="M50,144c26.5,0,48-9.5,48-36S76.5,60,50,60S2,81.5,2,108S23.5,144,50,144"/>
		<path class="st14" d="M178,144c-26.5,0-48-9.5-48-36s21.5-48,48-48s48,21.5,48,48S204.5,144,178,144"/>
		<path class="st14" d="M162,76c17.7,0,32-2.3,32-20s-14.3-32-32-32s-32,14.3-32,32S144.3,76,162,76"/>
		<path class="st14" d="M98,60V16c0-8.8-7.2-16-16-16c-8.8,0-16,7.2-16,16v44H98z"/>
		<path class="st14" d="M162,60V16c0-8.8-7.2-16-16-16c-8.8,0-16,7.2-16,16v44H162z"/>
	</g>
	<rect x="66" y="60" class="st3" width="96" height="60"/>
	<rect x="34" y="56" class="st3" width="64" height="52"/>
	<rect x="130" y="56" class="st3" width="64" height="52"/>
	<rect x="2" y="110" class="st3" width="96" height="46"/>
	<rect x="130" y="110" class="st3" width="96" height="46"/>
	<g class="st1">
		<defs>
			<rect id="SVGID_19_" x="1" width="226" height="205"/>
		</defs>
		<clipPath id="SVGID_20_">
			<use xlink:href="#SVGID_19_"  style="overflow:visible;"/>
		</clipPath>
		<path class="st15" d="M50,204c26.5,0,48-21.5,48-48s-21.5-48-48-48S2,129.5,2,156S23.5,204,50,204"/>
	</g>
	<g class="st1">
		<defs>
			<path id="SVGID_21_" d="M2,156c0,26.5,21.5,48,48,48s48-21.5,48-48s-21.5-48-48-48S2,129.5,2,156"/>
		</defs>
		<clipPath id="SVGID_22_">
			<use xlink:href="#SVGID_21_"  style="overflow:visible;"/>
		</clipPath>
		<path class="st16" d="M50.1,168.1c26.6,0,48.1-21.5,48.1-48.1c0-26.6-21.5-48.1-48.1-48.1S2,93.4,2,120
			C2,146.6,23.5,168.1,50.1,168.1"/>
	</g>
	<g class="st1">
		<defs>
			<path id="SVGID_23_" d="M5.5,138c7.1,17.6,24.4,30.1,44.6,30.1c20.1,0,37.3-12.3,44.5-29.8C87.6,120.5,70.2,108,50,108
				C29.9,108,12.6,120.4,5.5,138"/>
		</defs>
		<clipPath id="SVGID_24_">
			<use xlink:href="#SVGID_23_"  style="overflow:visible;"/>
		</clipPath>
		<path class="st17" d="M-21.7,154.2C36.7,154.2,84,106.9,84,48.5S36.7-57.2-21.7-57.2S-127.4-9.9-127.4,48.5
			S-80.1,154.2-21.7,154.2"/>
		<path class="st18" d="M13.8,151.2c31.5-16.3,81.7-1.8,76.2-56.3c0,0,32.1-41.7,34.5-39.9c2.4,1.8,21.8,12.1,24.2,39.9
			c2.4,27.8,13.3,46,0,65.3c-13.3,19.4-12.1,38.1-43.6,38.1S2.9,192.9,2.9,182C2.9,171.1,13.8,151.2,13.8,151.2"/>
	</g>
	<g class="st1">
		<defs>
			<rect id="SVGID_25_" x="1" width="226" height="205"/>
		</defs>
		<clipPath id="SVGID_26_">
			<use xlink:href="#SVGID_25_"  style="overflow:visible;"/>
		</clipPath>
		<circle class="st19" cx="50" cy="156" r="48"/>
		<path class="st20" d="M178,204c-26.5,0-48-21.5-48-48s21.5-48,48-48s48,21.5,48,48S204.5,204,178,204"/>
	</g>
	<g class="st1">
		<defs>
			<path id="SVGID_27_" d="M130,156c0,26.5,21.5,48,48,48s48-21.5,48-48s-21.5-48-48-48S130,129.5,130,156"/>
		</defs>
		<clipPath id="SVGID_28_">
			<use xlink:href="#SVGID_27_"  style="overflow:visible;"/>
		</clipPath>
		<path class="st21" d="M178.1,168.2c26.6,0,48.1-21.5,48.1-48.1c0-26.6-21.5-48.1-48.1-48.1S130,93.5,130,120.1
			C130,146.7,151.5,168.2,178.1,168.2"/>
	</g>
	<g class="st1">
		<defs>
			<path id="SVGID_29_" d="M133.5,138.1c7.1,17.7,24.4,30.1,44.6,30.1c20.1,0,37.4-12.4,44.5-29.9c-7-17.8-24.4-30.3-44.6-30.3
				C157.8,108,140.6,120.4,133.5,138.1"/>
		</defs>
		<clipPath id="SVGID_30_">
			<use xlink:href="#SVGID_29_"  style="overflow:visible;"/>
		</clipPath>
		<path class="st22" d="M106.3,154.3C164.7,154.3,212,107,212,48.6S164.7-57.1,106.3-57.1S0.6-9.8,0.6,48.6S47.9,154.3,106.3,154.3"
			/>
		<path class="st23" d="M141.8,151.3c31.5-16.3,81.7-1.8,76.2-56.3c0,0,32.1-41.7,34.5-39.9s21.8,12.1,24.2,39.9s13.3,46,0,65.3
			s-12.1,38.1-43.6,38.1s-102.2-5.4-102.2-16.3C130.9,171.2,141.8,151.3,141.8,151.3"/>
	</g>
	<g class="st1">
		<defs>
			<rect id="SVGID_31_" x="1" width="226" height="205"/>
		</defs>
		<clipPath id="SVGID_32_">
			<use xlink:href="#SVGID_31_"  style="overflow:visible;"/>
		</clipPath>
		<circle class="st24" cx="178" cy="156" r="48"/>
	</g>
</g>
<g class="st0">
	<rect x="99" y="131.5" class="st3" width="63" height="28"/>
	<rect x="67" y="157.5" class="st3" width="128" height="12"/>
	<g class="st1">
		<defs>
			<rect id="SVGID_33_" x="2" y="-0.5" width="260" height="170.5"/>
		</defs>
		<clipPath id="SVGID_34_">
			<use xlink:href="#SVGID_33_"  style="overflow:visible;"/>
		</clipPath>
		<rect x="67" y="157.5" class="st25" width="128" height="12"/>
		<path class="st26" d="M16,0.5c-0.1,0-13,0.1-13,13v108c0,0.1,0.1,13,13,13h232c0.1,0,13-0.1,13-13v-108c0-0.1-0.1-13-13-13H16z"/>
		<path class="st27" d="M16,0.5c-0.1,0-13,0.1-13,13v108c0,0.1,0.1,13,13,13h232c0.1,0,13-0.1,13-13v-108c0-0.1-0.1-13-13-13H16z"/>
	</g>
	<rect x="16" y="13.5" class="st28" width="232" height="108"/>
	<rect x="164" y="81.5" class="st29" width="32" height="28"/>
	<rect x="132" y="39.5" class="st29" width="32" height="70"/>
	<rect x="36" y="25.5" class="st29" width="32" height="84"/>
	<rect x="196" y="53.5" class="st29" width="32" height="56"/>
	<rect x="68" y="95.5" class="st29" width="32" height="14"/>
	<rect x="100" y="67.5" class="st29" width="32" height="42"/>
</g>
<g class="st0">
	<rect x="99" y="131.5" class="st3" width="63" height="28"/>
	<g class="st1">
		<defs>
			<rect id="SVGID_35_" x="2" y="-0.5" width="260" height="170.5"/>
		</defs>
		<clipPath id="SVGID_36_">
			<use xlink:href="#SVGID_35_"  style="overflow:visible;"/>
		</clipPath>
		<path class="st30" d="M16,0.5c-0.1,0-13,0.1-13,13v108c0,0.1,0.1,13,13,13h232c0.1,0,13-0.1,13-13v-108c0-0.1-0.1-13-13-13H16z"/>
		<path class="st31" d="M16,0.5c-0.1,0-13,0.1-13,13v108c0,0.1,0.1,13,13,13h232c0.1,0,13-0.1,13-13v-108c0-0.1-0.1-13-13-13H16z"/>
	</g>
	<rect x="67" y="157.5" class="st3" width="128" height="12"/>
	<g class="st1">
		<defs>
			<rect id="SVGID_37_" x="2" y="-0.5" width="260" height="170.5"/>
		</defs>
		<clipPath id="SVGID_38_">
			<use xlink:href="#SVGID_37_"  style="overflow:visible;"/>
		</clipPath>
		<rect x="67" y="157.5" class="st32" width="128" height="12"/>
	</g>
	<rect x="16" y="13.5" class="st28" width="232" height="108"/>
	<rect x="68" y="81.5" class="st33" width="32" height="28"/>
	<rect x="36" y="39.5" class="st33" width="32" height="70"/>
	<rect x="196" y="25.5" class="st33" width="32" height="84"/>
	<rect x="132" y="53.5" class="st33" width="32" height="56"/>
	<rect x="100" y="95.5" class="st33" width="32" height="14"/>
	<rect x="164" y="67.5" class="st33" width="32" height="42"/>
</g>
<g>
	<g>
		<defs>
			<rect id="SVGID_39_" x="2" y="-47.2" width="180" height="277.2"/>
		</defs>
		<clipPath id="SVGID_40_">
			<use xlink:href="#SVGID_39_"  style="overflow:visible;"/>
		</clipPath>
		<path class="st34" d="M155.6,155c35.1-35.1,35.1-92.1,0-127.3c-35.1-35.1-92.1-35.1-127.3,0c-35.1,35.1-35.1,92.1,0,127.3
			C63.5,190.2,120.5,190.2,155.6,155"/>
		<path class="st35" d="M138.7,138.1c25.8-25.8,25.8-67.6,0-93.3C112.9,19,71.1,19,45.3,44.7c-25.8,25.8-25.8,67.6,0,93.3
			C71.1,163.9,112.9,163.9,138.7,138.1"/>
	</g>
	<polygon class="st36" points="20,19 66,65 76,0 	"/>
	<polygon class="st36" points="105,184 164.1,163.5 114.6,114 	"/>
	<polygon class="st37" points="59.5,13.6 53.8,53.2 19.9,19.3 	"/>
	<polygon class="st37" points="124.5,169.2 130.2,129.6 164.1,163.5 	"/>
	<g>
		<defs>
			<rect id="SVGID_41_" x="2" y="-47.2" width="180" height="277.2"/>
		</defs>
		<clipPath id="SVGID_42_">
			<use xlink:href="#SVGID_41_"  style="overflow:visible;"/>
		</clipPath>
	</g>
</g>
</svg>
