<?xml version="1.0" encoding="utf-8"?>
<!-- Generator: Adobe Illustrator 21.0.0, SVG Export Plug-In . SVG Version: 6.00 Build 0)  -->
<svg version="1.1" id="Layer_1" xmlns="http://www.w3.org/2000/svg" xmlns:xlink="http://www.w3.org/1999/xlink" x="0px" y="0px"
	 viewBox="0 0 292 232" style="enable-background:new 0 0 292 232;" xml:space="preserve">
<style type="text/css">
	.st0{fill:#E61E28;}
	.st1{clip-path:url(#SVGID_2_);}
	.st2{clip-path:url(#SVGID_4_);}
	.st3{clip-path:url(#SVGID_6_);}
	.st4{fill:none;stroke:#E61E28;stroke-width:12;stroke-miterlimit:10;}
	.st5{fill:none;stroke:#E61E28;stroke-miterlimit:10;}
	.st6{clip-path:url(#SVGID_8_);}
	.st7{clip-path:url(#SVGID_8_);fill:#E61E28;}
	.st8{display:none;}
	.st9{display:inline;}
	.st10{display:inline;fill:#E61E28;}
	.st11{clip-path:url(#SVGID_10_);}
	.st12{clip-path:url(#SVGID_12_);}
	.st13{display:inline;fill:none;stroke:#E61E28;stroke-width:12;stroke-miterlimit:10;}
	.st14{clip-path:url(#SVGID_14_);fill:none;stroke:#E61E28;stroke-miterlimit:10;}
	.st15{display:inline;fill:none;stroke:#E61E28;stroke-miterlimit:10;}
</style>
<g>
	<g>
		<path class="st0" d="M130.5,92.9h2.2V98h5.5v-5.1h2.2V105h-2.2v-5.1h-5.5v5.1h-2.2V92.9z"/>
		<path class="st0" d="M148.8,92.7c3.7,0,6.2,2.7,6.2,6.2c0,3.6-2.6,6.3-6.2,6.3s-6.2-2.8-6.2-6.3C142.6,95.4,145.1,92.7,148.8,92.7
			z M148.8,103.2c2.3,0,4-1.9,4-4.3c0-2.3-1.7-4.1-4-4.1c-2.3,0-4,1.8-4,4.1C144.8,101.3,146.5,103.2,148.8,103.2z"/>
	</g>
	<g>
		<path class="st0" d="M132,122.7c3.7,0,6.2,2.7,6.2,6.2c0,3.6-2.6,6.3-6.2,6.3s-6.2-2.8-6.2-6.3C125.8,125.4,128.3,122.7,132,122.7
			z M132,133.2c2.3,0,4-1.9,4-4.3c0-2.3-1.7-4.1-4-4.1c-2.3,0-4,1.8-4,4.1C128,131.3,129.7,133.2,132,133.2z"/>
		<path class="st0" d="M140.4,122.9h2.2v5.1h5.5v-5.1h2.2V135h-2.2v-5.1h-5.5v5.1h-2.2V122.9z"/>
	</g>
	<g>
		<path class="st0" d="M167.5,116.9h2.2v5.1h5.5v-5.1h2.2V129h-2.2v-5.1h-5.5v5.1h-2.2V116.9z"/>
	</g>
	<g>
		<defs>
			<rect id="SVGID_1_" y="-0.1" width="272.8" height="232.1"/>
		</defs>
		<clipPath id="SVGID_2_">
			<use xlink:href="#SVGID_1_"  style="overflow:visible;"/>
		</clipPath>
		<g class="st1">
			<path class="st0" d="M208-0.3c3.7,0,6.2,2.7,6.2,6.2c0,3.6-2.6,6.3-6.2,6.3s-6.2-2.8-6.2-6.3C201.7,2.4,204.3-0.3,208-0.3z
				 M208,10.1c2.3,0,4-1.9,4-4.3c0-2.3-1.7-4.1-4-4.1c-2.3,0-4,1.8-4,4.1C204,8.3,205.7,10.1,208,10.1z"/>
		</g>
	</g>
	<g>
		<path class="st0" d="M264,115.7c3.7,0,6.2,2.7,6.2,6.2c0,3.6-2.6,6.3-6.2,6.3s-6.2-2.8-6.2-6.3C257.8,118.4,260.3,115.7,264,115.7
			z M264,126.1c2.3,0,4-1.9,4-4.3c0-2.3-1.7-4.1-4-4.1c-2.3,0-4,1.8-4,4.1C260,124.3,261.7,126.1,264,126.1z"/>
	</g>
	<g>
		<defs>
			<rect id="SVGID_3_" y="-0.1" width="272.8" height="232.1"/>
		</defs>
		<clipPath id="SVGID_4_">
			<use xlink:href="#SVGID_3_"  style="overflow:visible;"/>
		</clipPath>
		<g class="st2">
			<path class="st0" d="M247.5,45.9h2.2V51h5.5v-5.1h2.2V58h-2.2v-5.1h-5.5V58h-2.2V45.9z"/>
			<path class="st0" d="M265.8,45.7c3.7,0,6.2,2.7,6.2,6.2c0,3.6-2.6,6.3-6.2,6.3s-6.2-2.8-6.2-6.3
				C259.6,48.4,262.1,45.7,265.8,45.7z M265.8,56.2c2.3,0,4-1.9,4-4.3c0-2.3-1.7-4.1-4-4.1c-2.3,0-4,1.8-4,4.1
				C261.8,54.3,263.5,56.2,265.8,56.2z"/>
		</g>
		<g class="st2">
			<path class="st0" d="M75.5,219.9h2.2v5.1h5.5v-5.1h2.2V232h-2.2v-5.1h-5.5v5.1h-2.2V219.9z"/>
		</g>
	</g>
	<g>
		<path class="st0" d="M245,198.7c3.7,0,6.2,2.7,6.2,6.2c0,3.6-2.6,6.3-6.2,6.3s-6.2-2.8-6.2-6.3C238.7,201.4,241.3,198.7,245,198.7
			z M245,209.2c2.3,0,4-1.9,4-4.3c0-2.3-1.7-4.1-4-4.1c-2.3,0-4,1.8-4,4.1C241,207.3,242.7,209.2,245,209.2z"/>
		<path class="st0" d="M253.4,198.9h2.2v5.1h5.5v-5.1h2.2V211h-2.2v-5.1h-5.5v5.1h-2.2V198.9z"/>
	</g>
	<g>
		<path class="st0" d="M16.5,100.9h2.2v5.1h5.5v-5.1h2.2V113h-2.2v-5.1h-5.5v5.1h-2.2V100.9z"/>
	</g>
	<g>
		<defs>
			<rect id="SVGID_5_" y="-0.1" width="272.8" height="232.1"/>
		</defs>
		<clipPath id="SVGID_6_">
			<use xlink:href="#SVGID_5_"  style="overflow:visible;"/>
		</clipPath>
		<g class="st3">
			<path class="st0" d="M1.5,160.9h2.2v5.1h5.5v-5.1h2.2v12.1H9.2v-5.1H3.7v5.1H1.5V160.9z"/>
			<path class="st0" d="M19.8,160.7c3.7,0,6.2,2.7,6.2,6.2c0,3.6-2.6,6.3-6.2,6.3s-6.2-2.8-6.2-6.3
				C13.5,163.4,16.1,160.7,19.8,160.7z M19.8,171.1c2.3,0,4-1.9,4-4.3c0-2.3-1.7-4.1-4-4.1c-2.3,0-4,1.8-4,4.1
				C15.8,169.3,17.5,171.1,19.8,171.1z"/>
		</g>
	</g>
	<polygon class="st4" points="216.4,96.5 162.6,42.7 89.3,62.4 69.6,135.8 123.3,189.5 196.7,169.9 	"/>
	<line class="st5" x1="84.5" y1="58.9" x2="84.5" y2="22.9"/>
	<line class="st5" x1="125.5" y1="182.9" x2="125.5" y2="146.9"/>
	<line class="st5" x1="118.8" y1="92.7" x2="93.4" y2="67.3"/>
	<line class="st5" x1="63.7" y1="137.7" x2="38.3" y2="112.3"/>
	<line class="st5" x1="192.8" y1="165.7" x2="167.4" y2="140.3"/>
	<line class="st5" x1="226.8" y1="199.6" x2="201.4" y2="174.1"/>
	<line class="st5" x1="247.8" y1="119.7" x2="222.4" y2="94.3"/>
	<line class="st5" x1="63.8" y1="136.2" x2="38.4" y2="161.7"/>
	<line class="st5" x1="247.8" y1="69.3" x2="222.4" y2="94.7"/>
	<line class="st5" x1="189.7" y1="11.3" x2="164.3" y2="36.7"/>
	<line class="st5" x1="121.8" y1="195.3" x2="96.4" y2="220.7"/>
	<g>
		<defs>
			<rect id="SVGID_7_" y="-0.1" width="272.8" height="232.1"/>
		</defs>
		<clipPath id="SVGID_8_">
			<use xlink:href="#SVGID_7_"  style="overflow:visible;"/>
		</clipPath>
		<g class="st6">
			<path class="st0" d="M33.2-0.3c1.6,0,3.3,0.5,4.5,1.6L36.6,3c-0.9-0.7-2.1-1.3-3.3-1.3c-2.7,0-4,1.9-4,4.1c0,2.3,1.4,4.3,4.1,4.3
				c1.3,0,2.6-0.6,3.5-1.5l1.2,1.6c-1,1.1-2.6,2-4.7,2c-3.8,0-6.2-2.7-6.2-6.3C27,2.4,29.6-0.3,33.2-0.3z"/>
			<path class="st0" d="M39.7-0.1h2.2V5h5.5v-5.1h2.2V12h-2.2V6.9h-5.5V12h-2.2V-0.1z"/>
		</g>
		<path class="st7" d="M51.9,11.3c0-2.9,3.5-3.1,3.5-4.6c0-0.5-0.5-0.9-1-0.9c-0.6,0-1,0.4-1.4,0.8l-1.1-0.9
			c0.5-0.8,1.5-1.3,2.5-1.3c1.4,0,2.6,0.8,2.6,2.3c0,2.4-3.2,2.7-3.4,3.9h3.5V12h-5.2C51.9,11.8,51.9,11.5,51.9,11.3z"/>
		<g class="st6">
			<path class="st0" d="M64.9-0.3c3.7,0,6.2,2.7,6.2,6.2c0,3.6-2.6,6.3-6.2,6.3s-6.2-2.8-6.2-6.3C58.7,2.4,61.3-0.3,64.9-0.3z
				 M64.9,10.2c2.3,0,4-1.9,4-4.3c0-2.3-1.7-4.1-4-4.1c-2.3,0-4,1.8-4,4.1C60.9,8.3,62.6,10.2,64.9,10.2z"/>
			<path class="st0" d="M73.4-0.1h2.2V5h5.5v-5.1h2.2V12h-2.2V6.9h-5.5V12h-2.2V-0.1z"/>
		</g>
	</g>
</g>
<g class="st8">
	<g class="st9">
		<path class="st0" d="M18.5,26h2.2v5.1h5.5V26h2.2V38h-2.2V33h-5.5V38h-2.2V26z"/>
		<path class="st0" d="M36.8,25.8c3.7,0,6.2,2.7,6.2,6.2c0,3.6-2.6,6.3-6.2,6.3s-6.2-2.8-6.2-6.3C30.6,28.5,33.1,25.8,36.8,25.8z
			 M36.8,36.2c2.3,0,4-1.9,4-4.3c0-2.3-1.7-4.1-4-4.1c-2.3,0-4,1.8-4,4.1C32.8,34.4,34.5,36.2,36.8,36.2z"/>
		<path class="st0" d="M45.3,26h2.2v5.1H53V26h2.2V38H53V33h-5.5V38h-2.2V26z"/>
	</g>
	<path class="st10" d="M57.4,37.3c0-2.9,3.5-3.1,3.5-4.6c0-0.5-0.5-0.9-1-0.9c-0.6,0-1,0.4-1.4,0.8l-1.1-0.9
		c0.5-0.8,1.5-1.3,2.5-1.3c1.4,0,2.6,0.8,2.6,2.3c0,2.4-3.2,2.7-3.4,3.9h3.5V38h-5.2C57.4,37.8,57.4,37.5,57.4,37.3z"/>
	<g class="st9">
		<path class="st0" d="M70.4,25.8c1.6,0,3.3,0.5,4.5,1.6L73.8,29c-0.9-0.7-2.1-1.3-3.3-1.3c-2.7,0-4,1.9-4,4.1
			c0,2.3,1.4,4.3,4.1,4.3c1.3,0,2.6-0.6,3.5-1.5l1.2,1.6c-1,1.1-2.6,2-4.7,2c-3.8,0-6.2-2.7-6.2-6.3C64.2,28.4,66.8,25.8,70.4,25.8z
			"/>
	</g>
	<g class="st9">
		<path class="st0" d="M223.2,110.8c1.6,0,3.3,0.5,4.5,1.6l-1.1,1.6c-0.9-0.7-2.1-1.3-3.3-1.3c-2.7,0-4,1.9-4,4.1
			c0,2.3,1.4,4.3,4.1,4.3c1.3,0,2.6-0.6,3.5-1.5l1.2,1.6c-1,1.1-2.6,2-4.7,2c-3.8,0-6.2-2.7-6.2-6.3
			C217,113.4,219.6,110.8,223.2,110.8z"/>
		<path class="st0" d="M229.7,111h2.2v5.1h5.5V111h2.2V123h-2.2V118h-5.5v5.1h-2.2V111z"/>
	</g>
	<path class="st10" d="M241.8,122.3c0-2.9,3.5-3.1,3.5-4.6c0-0.5-0.5-0.9-1-0.9c-0.6,0-1,0.4-1.4,0.8l-1.1-0.9
		c0.5-0.8,1.5-1.3,2.5-1.3c1.4,0,2.6,0.8,2.6,2.3c0,2.4-3.2,2.7-3.4,3.9h3.5v1.4h-5.2C241.9,122.8,241.8,122.5,241.8,122.3z"/>
	<g class="st9">
		<path class="st0" d="M254.9,110.8c3.7,0,6.2,2.7,6.2,6.2c0,3.6-2.6,6.3-6.2,6.3s-6.2-2.8-6.2-6.3
			C248.7,113.5,251.2,110.8,254.9,110.8z M254.9,121.2c2.3,0,4-1.9,4-4.3c0-2.3-1.7-4.1-4-4.1c-2.3,0-4,1.8-4,4.1
			C250.9,119.4,252.6,121.2,254.9,121.2z"/>
		<path class="st0" d="M263.3,111h2.2v5.1h5.5V111h2.2V123h-2.2V118h-5.5v5.1h-2.2V111z"/>
	</g>
	<g class="st9">
		<path class="st0" d="M104.7,111h2.2v5.1h5.5V111h2.2V123h-2.2V118h-5.5v5.1h-2.2V111z"/>
		<path class="st0" d="M123,110.8c3.7,0,6.2,2.7,6.2,6.2c0,3.6-2.6,6.3-6.2,6.3s-6.2-2.8-6.2-6.3C116.8,113.5,119.3,110.8,123,110.8
			z M123,121.2c2.3,0,4-1.9,4-4.3c0-2.3-1.7-4.1-4-4.1c-2.3,0-4,1.8-4,4.1C119,119.4,120.7,121.2,123,121.2z"/>
	</g>
	<g class="st9">
		<defs>
			<rect id="SVGID_9_" y="-0.1" width="282.7" height="223.1"/>
		</defs>
		<clipPath id="SVGID_10_">
			<use xlink:href="#SVGID_9_"  style="overflow:visible;"/>
		</clipPath>
		<g class="st11">
			<path class="st0" d="M9.4,207.7c3.7,0,6.2,2.7,6.2,6.2c0,3.6-2.6,6.3-6.2,6.3s-6.2-2.8-6.2-6.3C3.2,210.4,5.8,207.7,9.4,207.7z
				 M9.4,218.2c2.3,0,4-1.9,4-4.3c0-2.3-1.7-4.1-4-4.1c-2.3,0-4,1.8-4,4.1C5.4,216.3,7.1,218.2,9.4,218.2z"/>
			<path class="st0" d="M17.9,207.9h2.2v5.1h5.5v-5.1h2.2V220h-2.2v-5.1h-5.5v5.1h-2.2V207.9z"/>
		</g>
		<g class="st11">
			<path class="st0" d="M136.2-0.3c3.7,0,6.2,2.7,6.2,6.2c0,3.6-2.6,6.3-6.2,6.3S130,9.4,130,5.9C130,2.4,132.5-0.3,136.2-0.3z
				 M136.2,10.2c2.3,0,4-1.9,4-4.3c0-2.3-1.7-4.1-4-4.1c-2.3,0-4,1.8-4,4.1C132.2,8.3,133.9,10.2,136.2,10.2z"/>
		</g>
	</g>
	<g class="st9">
		<path class="st0" d="M184.7,48.9h2.2V54h5.5v-5.1h2.2V61h-2.2v-5.1h-5.5V61h-2.2V48.9z"/>
	</g>
	<g class="st9">
		<path class="st0" d="M72.7,102h2.2v5.1h5.5V102h2.2V114h-2.2V109h-5.5v5.1h-2.2V102z"/>
	</g>
	<g class="st9">
		<defs>
			<rect id="SVGID_11_" y="-0.1" width="282.7" height="223.1"/>
		</defs>
		<clipPath id="SVGID_12_">
			<use xlink:href="#SVGID_11_"  style="overflow:visible;"/>
		</clipPath>
		<g class="st12">
			<path class="st0" d="M156.7,210.9h2.2v5.1h5.5v-5.1h2.2V223h-2.2v-5.1h-5.5v5.1h-2.2V210.9z"/>
		</g>
	</g>
	<polygon class="st13" points="49.8,161.4 125.2,173.3 159.9,105.3 105.9,51.3 37.8,86 	"/>
	<g class="st9">
		<defs>
			<rect id="SVGID_13_" y="-0.1" width="282.7" height="223.1"/>
		</defs>
		<clipPath id="SVGID_14_">
			<use xlink:href="#SVGID_13_"  style="overflow:visible;"/>
		</clipPath>
		<line class="st14" x1="32.3" y1="82.3" x2="0.2" y2="99.1"/>
	</g>
	<line class="st15" x1="185.5" y1="73.2" x2="166.5" y2="104.1"/>
	<line class="st15" x1="73.8" y1="125.2" x2="54.8" y2="156"/>
	<line class="st15" x1="45.6" y1="165.2" x2="26.6" y2="196"/>
	<line class="st15" x1="31.9" y1="82" x2="15.1" y2="50"/>
	<line class="st15" x1="122.5" y1="167.2" x2="105.7" y2="135.2"/>
	<line class="st15" x1="145.5" y1="211.2" x2="128.7" y2="179.2"/>
	<line class="st15" x1="106.7" y1="45.8" x2="117.5" y2="11.3"/>
	<line class="st15" x1="197.5" y1="122.9" x2="166.7" y2="103.9"/>
</g>
</svg>
