<?xml version="1.0" encoding="utf-8"?>
<!-- Generator: Adobe Illustrator 21.0.0, SVG Export Plug-In . SVG Version: 6.00 Build 0)  -->
<svg version="1.1" id="Layer_1" xmlns="http://www.w3.org/2000/svg" xmlns:xlink="http://www.w3.org/1999/xlink" x="0px" y="0px"
	 viewBox="0 0 587 312" style="enable-background:new 0 0 587 312;" xml:space="preserve">
<style type="text/css">
	.st0{display:none;}
	.st1{display:inline;fill:none;stroke:#E51E28;stroke-width:2;stroke-miterlimit:10;}
	.st2{display:inline;}
	.st3{clip-path:url(#SVGID_2_);fill:#FFFFFF;}
	.st4{clip-path:url(#SVGID_2_);fill:none;stroke:#E51E28;stroke-width:12;stroke-linejoin:bevel;stroke-miterlimit:10;}
	.st5{display:inline;fill:#D0D2D3;}
	.st6{clip-path:url(#SVGID_4_);fill:none;stroke:#A6A8AB;stroke-width:12;stroke-linejoin:bevel;stroke-miterlimit:10;}
	.st7{display:inline;fill:none;stroke:#A6A8AB;stroke-width:2;stroke-miterlimit:10;}
	.st8{clip-path:url(#SVGID_6_);fill:none;stroke:#A6A8AB;stroke-width:12;stroke-linejoin:bevel;stroke-miterlimit:10;}
	.st9{clip-path:url(#SVGID_6_);fill:#FFFFFF;}
	.st10{clip-path:url(#SVGID_6_);fill:none;stroke:#E51E28;stroke-width:2;stroke-miterlimit:10;}
	.st11{display:inline;fill:#E51E28;}
	.st12{fill:#929497;}
	.st13{fill:#E51E28;}
	.st14{fill:#231F20;}
	.st15{clip-path:url(#SVGID_8_);fill:#D0D2D3;}
	.st16{clip-path:url(#SVGID_10_);fill:none;stroke:#A6A8AB;stroke-width:12;stroke-linejoin:bevel;stroke-miterlimit:10;}
	.st17{clip-path:url(#SVGID_12_);fill:none;stroke:#A6A8AB;stroke-width:12;stroke-linejoin:bevel;stroke-miterlimit:10;}
	.st18{clip-path:url(#SVGID_12_);fill:#FFFFFF;}
	.st19{clip-path:url(#SVGID_12_);fill:none;stroke:#E51E28;stroke-width:2;stroke-miterlimit:10;}
	.st20{clip-path:url(#SVGID_14_);fill:none;stroke:#E51E28;stroke-width:12;stroke-linejoin:bevel;stroke-miterlimit:10;}
	.st21{clip-path:url(#SVGID_16_);fill:#D0D2D3;}
	.st22{fill:none;stroke:#009F00;stroke-width:2;stroke-miterlimit:10;}
	.st23{fill:#D0D2D3;}
	.st24{clip-path:url(#SVGID_18_);fill:none;stroke:#A6A8AB;stroke-width:12;stroke-linejoin:bevel;stroke-miterlimit:10;}
	.st25{fill:none;stroke:#A6A8AB;stroke-width:2;stroke-miterlimit:10;}
	.st26{clip-path:url(#SVGID_20_);fill:none;stroke:#A6A8AB;stroke-width:12;stroke-linejoin:bevel;stroke-miterlimit:10;}
	.st27{clip-path:url(#SVGID_20_);fill:#FFFFFF;}
	.st28{clip-path:url(#SVGID_20_);fill:none;stroke:#009F00;stroke-width:2;stroke-miterlimit:10;}
	.st29{fill:#009F00;}
	.st30{clip-path:url(#SVGID_22_);fill:none;stroke:#009F00;stroke-width:12;stroke-linejoin:bevel;stroke-miterlimit:10;}
</style>
<g class="st0">
	<line class="st1" x1="172.4" y1="203" x2="417.1" y2="156"/>
	<g class="st2">
		<defs>
			<rect id="SVGID_1_" width="576.3" height="312"/>
		</defs>
		<clipPath id="SVGID_2_">
			<use xlink:href="#SVGID_1_"  style="overflow:visible;"/>
		</clipPath>
		<path class="st3" d="M421.3,304c82.3,0,149-66.7,149-149S503.6,6,421.3,6s-149,66.7-149,149S339,304,421.3,304"/>
		<circle class="st4" cx="421.3" cy="155" r="149"/>
	</g>
	<rect x="43.3" y="276" class="st5" width="148" height="27"/>
	<g class="st2">
		<defs>
			<rect id="SVGID_3_" width="576.3" height="312"/>
		</defs>
		<clipPath id="SVGID_4_">
			<use xlink:href="#SVGID_3_"  style="overflow:visible;"/>
		</clipPath>
		<polygon class="st6" points="192,6 229,12 192,36.5 192,306 44,306 44,6 		"/>
	</g>
	<line class="st7" x1="192" y1="251.5" x2="160.3" y2="251.5"/>
	<line class="st7" x1="192" y1="275.5" x2="160.3" y2="275.5"/>
	<line class="st7" x1="192" y1="155.1" x2="160.3" y2="155.1"/>
	<line class="st7" x1="192" y1="132.2" x2="160.3" y2="132.2"/>
	<line class="st7" x1="192" y1="107.3" x2="160.3" y2="107.3"/>
	<line class="st7" x1="192" y1="84.4" x2="160.3" y2="84.4"/>
	<line class="st7" x1="192" y1="59.5" x2="160.3" y2="59.5"/>
	<g class="st2">
		<defs>
			<rect id="SVGID_5_" width="576.3" height="312"/>
		</defs>
		<clipPath id="SVGID_6_">
			<use xlink:href="#SVGID_5_"  style="overflow:visible;"/>
		</clipPath>
		<polyline class="st8" points="44,66 18,66 6,76 6,216 		"/>
		<path class="st9" d="M177.3,239c19.3,0,35-15.7,35-35s-15.7-35-35-35s-35,15.7-35,35S158,239,177.3,239"/>
		<circle class="st10" cx="177.3" cy="204" r="35"/>
	</g>
	<line class="st1" x1="198.3" y1="203.5" x2="160.3" y2="203.5"/>
	<polygon class="st11" points="207.3,184.7 197.3,175 197.3,233 206.1,224.5 209.8,216.1 212.3,207.6 211.1,198 	"/>
	<line class="st1" x1="511.3" y1="275.5" x2="480.3" y2="275.5"/>
	<line class="st1" x1="535.3" y1="251.5" x2="480.3" y2="251.5"/>
	<line class="st1" x1="549.3" y1="227.5" x2="480.3" y2="227.5"/>
	<line class="st1" x1="565.3" y1="203.5" x2="480.3" y2="203.5"/>
	<line class="st1" x1="424.8" y1="203.5" x2="281.3" y2="203.5"/>
	<line class="st1" x1="570.3" y1="179.5" x2="480.3" y2="179.5"/>
	<line class="st1" x1="570.3" y1="155.5" x2="480.3" y2="155.5"/>
	<line class="st1" x1="570.3" y1="131.5" x2="480.3" y2="131.5"/>
	<line class="st1" x1="561.3" y1="107.5" x2="480.3" y2="107.5"/>
	<line class="st1" x1="547.3" y1="83.5" x2="480.3" y2="83.5"/>
	<line class="st1" x1="535.3" y1="59.5" x2="480.3" y2="59.5"/>
	<line class="st1" x1="513.3" y1="35.5" x2="480.3" y2="35.5"/>
	<g class="st2">
		<path class="st12" d="M438.1,223.7l5.2-7.6h2.6v7.1h1.6v1.8h-1.6v3.1h-2.2V225h-5.6V223.7z M443.7,223.2v-3.7
			c0-0.6,0.1-1.3,0.1-1.3h0c0,0-0.3,0.6-0.6,1.1l-2.8,3.9v0H443.7z"/>
		<path class="st12" d="M448.9,222.1c0-3.5,1.1-6.2,4.4-6.2s4.4,2.8,4.4,6.2s-1.1,6.3-4.4,6.3S448.9,225.5,448.9,222.1z
			 M455.5,222.1c0-2.3-0.5-4.2-2.1-4.2s-2.1,1.9-2.1,4.2c0,2.4,0.5,4.3,2.1,4.3S455.5,224.4,455.5,222.1z"/>
		<path class="st12" d="M459.3,227c0-4.4,5.6-5,5.6-7.4c0-1.1-0.8-1.7-1.8-1.7c-0.9,0-1.7,0.6-2.2,1.4l-1.6-1.1
			c0.7-1.3,2.1-2.4,4-2.4c2.1,0,3.9,1.3,3.9,3.6c0,3.9-5.4,4.5-5.5,6.8h5.7v1.9h-8C459.3,227.7,459.3,227.4,459.3,227z"/>
	</g>
	<g class="st2">
		<path class="st12" d="M437.3,175.6l5.2-7.6h2.6v7.1h1.6v1.8h-1.6v3.1h-2.2V177h-5.6V175.6z M442.9,175.2v-3.7
			c0-0.6,0.1-1.3,0.1-1.3h0c0,0-0.3,0.6-0.6,1.1l-2.8,3.9v0H442.9z"/>
		<path class="st12" d="M448.1,174c0-3.5,1.1-6.2,4.4-6.2c3.3,0,4.4,2.8,4.4,6.2c0,3.5-1.1,6.3-4.4,6.3
			C449.2,180.3,448.1,177.5,448.1,174z M454.7,174c0-2.3-0.5-4.2-2.1-4.2s-2.1,1.9-2.1,4.2c0,2.4,0.5,4.3,2.1,4.3
			S454.7,176.4,454.7,174z"/>
		<path class="st12" d="M458.3,175.6l5.2-7.6h2.6v7.1h1.6v1.8h-1.6v3.1H464V177h-5.6V175.6z M464,175.2v-3.7c0-0.6,0.1-1.3,0.1-1.3
			h0c0,0-0.3,0.6-0.6,1.1l-2.8,3.9v0H464z"/>
	</g>
	<g class="st2">
		<path class="st12" d="M437.4,127.6l5.2-7.6h2.6v7.1h1.6v1.8h-1.6v3.1h-2.2V129h-5.6V127.6z M443.1,127.2v-3.7
			c0-0.6,0.1-1.3,0.1-1.3h0c0,0-0.3,0.6-0.6,1.1l-2.8,3.9v0H443.1z"/>
		<path class="st12" d="M448.3,126c0-3.5,1.1-6.2,4.4-6.2s4.4,2.8,4.4,6.2c0,3.5-1.1,6.3-4.4,6.3S448.3,129.5,448.3,126z M454.8,126
			c0-2.3-0.5-4.2-2.1-4.2s-2.1,1.9-2.1,4.2c0,2.4,0.5,4.3,2.1,4.3S454.8,128.4,454.8,126z"/>
		<path class="st12" d="M464.5,119.8c0.8,0,1.7,0.2,2.5,0.5l-0.6,1.9c-0.3-0.2-1.1-0.4-1.7-0.4c-1.9,0-2.9,1.6-3.2,3.2h0
			c0.4-0.5,1.4-0.8,2.3-0.8c2.4,0,3.9,1.9,3.9,4c0,2.2-1.6,4-4,4c-2.5,0-4.7-2.1-4.7-5.7C458.9,123.4,460.8,119.8,464.5,119.8z
			 M465.4,128.3c0-1.2-0.8-2.2-2.2-2.2c-1,0-2,0.5-2,1.4c0,1.3,1,2.9,2.4,2.9C464.7,130.3,465.4,129.4,465.4,128.3z"/>
	</g>
	<g class="st2">
		<path class="st12" d="M437.4,79.6l5.2-7.6h2.6v7.1h1.6V81h-1.6v3.1H443V81h-5.6V79.6z M443,79.2v-3.7c0-0.6,0.1-1.3,0.1-1.3h0
			c0,0-0.3,0.6-0.6,1.1l-2.8,3.9v0H443z"/>
		<path class="st12" d="M448.3,78c0-3.5,1.1-6.2,4.4-6.2s4.4,2.8,4.4,6.2c0,3.5-1.1,6.3-4.4,6.3S448.3,81.5,448.3,78z M454.8,78
			c0-2.3-0.5-4.2-2.1-4.2s-2.1,1.9-2.1,4.2c0,2.4,0.5,4.3,2.1,4.3S454.8,80.4,454.8,78z"/>
		<path class="st12" d="M460.7,77.5c-0.7-0.6-1.3-1.3-1.3-2.3c0-1.7,1.2-3.3,3.9-3.3c2.2,0,3.9,1.3,3.9,3.3c0,1.4-1,2.6-1.3,3
			c0.9,0.6,1.5,1.3,1.5,2.5c0,1.9-1.6,3.6-4.3,3.6c-2.6,0-4.3-1.6-4.3-3.7C458.8,78.9,460.2,77.8,460.7,77.5z M463.1,82.3
			c1.1,0,2-0.7,2-1.7c0-1.1-1.5-1.5-3-2.2c-0.3,0.3-1.1,1-1.1,2C461.1,81.5,462,82.3,463.1,82.3z M465,75.3c0-1-0.7-1.5-1.8-1.5
			s-1.7,0.6-1.7,1.4c0,1.1,1.3,1.6,2.7,2.2C464.4,77.1,465,76.3,465,75.3z"/>
	</g>
	<g class="st2">
		<path class="st12" d="M439.2,247.5l5.2-7.6h2.6v7.1h1.6v1.8H447v3.1h-2.2v-3.1h-5.6V247.5z M444.9,247v-3.7c0-0.6,0.1-1.3,0.1-1.3
			h0c0,0-0.3,0.6-0.6,1.1l-2.8,3.9v0H444.9z"/>
		<path class="st12" d="M450.1,245.9c0-3.5,1.1-6.2,4.4-6.2s4.4,2.8,4.4,6.2s-1.1,6.3-4.4,6.3S450.1,249.4,450.1,245.9z
			 M456.6,245.9c0-2.3-0.5-4.2-2.1-4.2s-2.1,1.9-2.1,4.2c0,2.4,0.5,4.3,2.1,4.3S456.6,248.3,456.6,245.9z"/>
		<path class="st12" d="M460.5,250.1h2.6v-6.7c0-0.4,0-0.8,0-0.8h0c0,0-0.2,0.3-0.5,0.7l-1,0.9l-1.3-1.4l3-2.9h1.9v10.2h2.6v1.9
			h-7.4V250.1z"/>
	</g>
	<g class="st2">
		<path class="st13" d="M438.5,199.6l5.2-7.6h2.6v7.1h1.6v1.8h-1.6v3.1h-2.2v-3.1h-5.6V199.6z M444.1,199.1v-3.7
			c0-0.6,0.1-1.3,0.1-1.3h0c0,0-0.3,0.6-0.6,1.1l-2.8,3.9v0H444.1z"/>
		<path class="st13" d="M449.3,198c0-3.5,1.1-6.2,4.4-6.2c3.3,0,4.4,2.8,4.4,6.2c0,3.5-1.1,6.3-4.4,6.3
			C450.4,204.3,449.3,201.5,449.3,198z M455.8,198c0-2.3-0.5-4.2-2.1-4.2s-2.1,1.9-2.1,4.2c0,2.4,0.5,4.3,2.1,4.3
			S455.8,200.4,455.8,198z"/>
		<path class="st13" d="M460.4,201c0.6,0.7,1.7,1.2,2.8,1.2c1.2,0,2.2-0.8,2.2-1.8c0-1.3-1.2-1.9-2.6-1.9h-0.8l-0.5-1.1l2.2-2.6
			c0.5-0.6,0.9-0.9,0.9-0.9v0c0,0-0.4,0.1-1.1,0.1h-3.6V192h7.4v1.4l-2.9,3.4c1.7,0.2,3.3,1.4,3.3,3.5c0,2.1-1.5,4-4.2,4
			c-1.4,0-2.9-0.5-4-1.6L460.4,201z"/>
	</g>
	<g class="st2">
		<path class="st12" d="M438.1,151.6l5.2-7.6h2.6v7.1h1.6v1.8h-1.6v3.1h-2.2v-3.1h-5.6V151.6z M443.8,151.1v-3.7
			c0-0.6,0.1-1.3,0.1-1.3h0c0,0-0.3,0.6-0.6,1.1l-2.8,3.9v0H443.8z"/>
		<path class="st12" d="M449,150c0-3.5,1.1-6.2,4.4-6.2s4.4,2.8,4.4,6.2c0,3.5-1.1,6.3-4.4,6.3S449,153.5,449,150z M455.5,150
			c0-2.3-0.5-4.2-2.1-4.2s-2.1,1.9-2.1,4.2c0,2.4,0.5,4.3,2.1,4.3S455.5,152.4,455.5,150z"/>
		<path class="st12" d="M460.5,153c0.5,0.6,1.5,1.2,2.6,1.2c1.2,0,2.3-0.8,2.3-2.1c0-1.3-1-2.1-2.4-2.1c-0.6,0-1.3,0.2-1.9,0.5
			l-1.2-0.4l0.6-6.1h6.4v1.9h-4.5l-0.2,2c0,0.3-0.1,0.6-0.1,0.6h0c0.2-0.1,0.9-0.3,1.3-0.3c2.7,0,4.2,1.8,4.2,4
			c0,2.4-1.9,4.1-4.4,4.1c-1.4,0-2.9-0.6-3.9-1.6L460.5,153z"/>
	</g>
	<g class="st2">
		<path class="st12" d="M438.9,103.6l5.2-7.6h2.6v7.1h1.6v1.8h-1.6v3.1h-2.2v-3.1h-5.6V103.6z M444.5,103.1v-3.7
			c0-0.6,0.1-1.3,0.1-1.3h0c0,0-0.3,0.6-0.6,1.1l-2.8,3.9v0H444.5z"/>
		<path class="st12" d="M449.7,102c0-3.5,1.1-6.2,4.4-6.2s4.4,2.8,4.4,6.2c0,3.5-1.1,6.3-4.4,6.3S449.7,105.5,449.7,102z M456.3,102
			c0-2.3-0.5-4.2-2.1-4.2s-2.1,1.9-2.1,4.2c0,2.4,0.5,4.3,2.1,4.3S456.3,104.4,456.3,102z"/>
		<path class="st12" d="M464.9,99c0.4-0.7,0.7-1.1,0.7-1.1v0c0,0-0.2,0-0.8,0h-5.2V96h8.3v1.5l-5.3,10.5h-2.3L464.9,99z"/>
	</g>
	<g class="st2">
		<path class="st12" d="M437.5,55.6l5.2-7.6h2.6v7.1h1.6v1.8h-1.6V60h-2.2v-3.1h-5.6V55.6z M443.1,55.1v-3.7c0-0.6,0.1-1.3,0.1-1.3
			h0c0,0-0.3,0.6-0.6,1.1l-2.8,3.9v0H443.1z"/>
		<path class="st12" d="M448.4,54c0-3.5,1.1-6.2,4.4-6.2s4.4,2.8,4.4,6.2c0,3.5-1.1,6.3-4.4,6.3S448.4,57.4,448.4,54z M454.9,54
			c0-2.3-0.5-4.2-2.1-4.2s-2.1,1.9-2.1,4.2c0,2.4,0.5,4.3,2.1,4.3S454.9,56.4,454.9,54z"/>
		<path class="st12" d="M460.1,57.8c0.4,0.2,1.1,0.4,1.7,0.4c1.9,0,2.9-1.6,3.2-3.2h0c-0.4,0.5-1.4,0.8-2.3,0.8
			c-2.4,0-3.9-1.9-3.9-4c0-2.2,1.6-4,4-4c2.5,0,4.7,2.1,4.7,5.7c0,3.2-1.8,6.7-5.6,6.7c-0.8,0-1.7-0.1-2.5-0.5L460.1,57.8z
			 M465.2,52.7c0-1.5-1.1-3-2.4-3c-1.1,0-1.8,0.9-1.8,2c0,1.2,0.8,2.2,2.2,2.2C464.3,54,465.2,53.5,465.2,52.7z"/>
	</g>
	<g class="st2">
		<path class="st12" d="M439.6,31.5l5.2-7.6h2.6V31h1.6v1.8h-1.6V36h-2.2v-3.1h-5.6V31.5z M445.3,31v-3.7c0-0.6,0.1-1.3,0.1-1.3h0
			c0,0-0.3,0.6-0.6,1.1l-2.8,3.9v0H445.3z"/>
		<path class="st12" d="M450.2,34.1h2.6v-6.7c0-0.4,0-0.8,0-0.8h0c0,0-0.2,0.3-0.5,0.7l-1,0.9l-1.3-1.4l3-2.9h1.9v10.2h2.6V36h-7.4
			V34.1z"/>
		<path class="st12" d="M458.6,29.9c0-3.5,1.1-6.2,4.4-6.2s4.4,2.8,4.4,6.2c0,3.5-1.1,6.3-4.4,6.3S458.6,33.4,458.6,29.9z
			 M465.1,29.9c0-2.3-0.5-4.2-2.1-4.2s-2.1,1.9-2.1,4.2c0,2.4,0.5,4.3,2.1,4.3S465.1,32.3,465.1,29.9z"/>
	</g>
	<g class="st2">
		<path class="st12" d="M437,271.5l5.2-7.6h2.6v7.1h1.6v1.8h-1.6v3.1h-2.2v-3.1H437V271.5z M442.6,271.1v-3.7c0-0.6,0.1-1.3,0.1-1.3
			h0c0,0-0.3,0.6-0.6,1.1l-2.8,3.9v0H442.6z"/>
		<path class="st12" d="M447.9,269.9c0-3.5,1.1-6.2,4.4-6.2s4.4,2.8,4.4,6.2s-1.1,6.3-4.4,6.3S447.9,273.4,447.9,269.9z
			 M454.4,269.9c0-2.3-0.5-4.2-2.1-4.2s-2.1,1.9-2.1,4.2c0,2.4,0.5,4.3,2.1,4.3S454.4,272.3,454.4,269.9z"/>
		<path class="st12" d="M458.6,269.9c0-3.5,1.1-6.2,4.4-6.2c3.3,0,4.4,2.8,4.4,6.2s-1.1,6.3-4.4,6.3
			C459.7,276.2,458.6,273.4,458.6,269.9z M465.1,269.9c0-2.3-0.5-4.2-2.1-4.2s-2.1,1.9-2.1,4.2c0,2.4,0.5,4.3,2.1,4.3
			S465.1,272.3,465.1,269.9z"/>
	</g>
	<g class="st2">
		<path class="st14" d="M65.3,58.1h2.6v-6.7c0-0.4,0-0.8,0-0.8h0c0,0-0.2,0.3-0.5,0.7l-1,0.9l-1.3-1.4l3-2.9H70v10.2h2.6V60h-7.4
			V58.1z"/>
		<path class="st14" d="M77.7,58.2c1.1-0.2,1.8-1.1,1.8-4.1v-2.7h6.3V60h-2.2v-6.9h-2.1v1c0,3.8-1,5.9-3.9,6V58.2z"/>
		<path class="st14" d="M88.2,51.3h2.1V56c0,0.4,0,0.9-0.1,1h0c0.1-0.2,0.4-0.7,0.6-1l3.2-4.6h2.1V60h-2.1v-4.6c0-0.3,0-0.8,0.1-1h0
			c-0.1,0.2-0.4,0.7-0.6,1L90.3,60h-2.1V51.3z"/>
		<path class="st14" d="M100.5,53.2h-2.9v-1.8h7.9v1.8h-2.9V60h-2.1V53.2z"/>
		<path class="st14" d="M107,51.3h2V52c0,0.3,0,0.6,0,0.6h0c0.6-0.9,1.6-1.5,2.8-1.5c2.3,0,3.8,1.9,3.8,4.5c0,2.8-1.7,4.5-4,4.5
			c-1,0-1.9-0.4-2.5-1.2h0c0,0,0.1,0.3,0.1,0.7v3.7H107V51.3z M111.2,58.4c1.2,0,2.2-1,2.2-2.7c0-1.6-0.9-2.7-2.1-2.7
			c-1.1,0-2.2,0.8-2.2,2.7C109.1,57.1,109.8,58.4,111.2,58.4z"/>
	</g>
</g>
<g class="st0">
	<g class="st2">
		<defs>
			<rect id="SVGID_7_" width="576.3" height="312"/>
		</defs>
		<clipPath id="SVGID_8_">
			<use xlink:href="#SVGID_7_"  style="overflow:visible;"/>
		</clipPath>
		<path class="st15" d="M283.3,203l32,55c0,0,28,48,107.5,48c79.5,0,109.5-48,109.5-48l28-54L283.3,203z"/>
	</g>
	<line class="st1" x1="172.4" y1="203" x2="277.1" y2="184"/>
	<rect x="43.3" y="204" class="st5" width="148" height="99"/>
	<g class="st2">
		<defs>
			<rect id="SVGID_9_" width="576.3" height="312"/>
		</defs>
		<clipPath id="SVGID_10_">
			<use xlink:href="#SVGID_9_"  style="overflow:visible;"/>
		</clipPath>
		<polygon class="st16" points="192,6 229,12 192,36.5 192,306 44,306 44,6 		"/>
	</g>
	<line class="st7" x1="192" y1="251.5" x2="160.3" y2="251.5"/>
	<line class="st7" x1="192" y1="275.5" x2="160.3" y2="275.5"/>
	<line class="st7" x1="192" y1="155.1" x2="160.3" y2="155.1"/>
	<line class="st7" x1="192" y1="132.2" x2="160.3" y2="132.2"/>
	<line class="st7" x1="192" y1="107.3" x2="160.3" y2="107.3"/>
	<line class="st7" x1="192" y1="84.4" x2="160.3" y2="84.4"/>
	<line class="st7" x1="192" y1="59.5" x2="160.3" y2="59.5"/>
	<g class="st2">
		<defs>
			<rect id="SVGID_11_" width="576.3" height="312"/>
		</defs>
		<clipPath id="SVGID_12_">
			<use xlink:href="#SVGID_11_"  style="overflow:visible;"/>
		</clipPath>
		<polyline class="st17" points="44,66 18,66 6,76 6,216 		"/>
		<path class="st18" d="M177.3,239c19.3,0,35-15.7,35-35s-15.7-35-35-35s-35,15.7-35,35S158,239,177.3,239"/>
		<circle class="st19" cx="177.3" cy="204" r="35"/>
	</g>
	<line class="st1" x1="198.3" y1="203.5" x2="160.3" y2="203.5"/>
	<polygon class="st11" points="207.3,184.7 197.3,175 197.3,233 206.1,224.5 209.8,216.1 212.3,207.6 211.1,198 	"/>
	<line class="st7" x1="511.3" y1="275.5" x2="480.3" y2="275.5"/>
	<line class="st7" x1="535.3" y1="251.5" x2="480.3" y2="251.5"/>
	<line class="st7" x1="549.3" y1="227.5" x2="480.3" y2="227.5"/>
	<line class="st1" x1="565.3" y1="203.5" x2="480.3" y2="203.5"/>
	<line class="st1" x1="424.8" y1="203.5" x2="281.3" y2="203.5"/>
	<line class="st7" x1="570.3" y1="179.5" x2="480.3" y2="179.5"/>
	<line class="st7" x1="570.3" y1="155.5" x2="480.3" y2="155.5"/>
	<line class="st7" x1="570.3" y1="131.5" x2="480.3" y2="131.5"/>
	<line class="st7" x1="561.3" y1="107.5" x2="480.3" y2="107.5"/>
	<line class="st7" x1="547.3" y1="83.5" x2="480.3" y2="83.5"/>
	<line class="st7" x1="535.3" y1="59.5" x2="480.3" y2="59.5"/>
	<line class="st7" x1="513.3" y1="35.5" x2="480.3" y2="35.5"/>
	<g class="st2">
		<path class="st12" d="M438.1,223.7l5.2-7.6h2.6v7.1h1.6v1.8h-1.6v3.1h-2.2V225h-5.6V223.7z M443.7,223.2v-3.7
			c0-0.6,0.1-1.3,0.1-1.3h0c0,0-0.3,0.6-0.6,1.1l-2.8,3.9v0H443.7z"/>
		<path class="st12" d="M448.9,222.1c0-3.5,1.1-6.2,4.4-6.2s4.4,2.8,4.4,6.2s-1.1,6.3-4.4,6.3S448.9,225.5,448.9,222.1z
			 M455.5,222.1c0-2.3-0.5-4.2-2.1-4.2s-2.1,1.9-2.1,4.2c0,2.4,0.5,4.3,2.1,4.3S455.5,224.4,455.5,222.1z"/>
		<path class="st12" d="M459.3,227c0-4.4,5.6-5,5.6-7.4c0-1.1-0.8-1.7-1.8-1.7c-0.9,0-1.7,0.6-2.2,1.4l-1.6-1.1
			c0.7-1.3,2.1-2.4,4-2.4c2.1,0,3.9,1.3,3.9,3.6c0,3.9-5.4,4.5-5.5,6.8h5.7v1.9h-8C459.3,227.7,459.3,227.4,459.3,227z"/>
	</g>
	<g class="st2">
		<path class="st12" d="M437.3,175.6l5.2-7.6h2.6v7.1h1.6v1.8h-1.6v3.1h-2.2V177h-5.6V175.6z M442.9,175.2v-3.7
			c0-0.6,0.1-1.3,0.1-1.3h0c0,0-0.3,0.6-0.6,1.1l-2.8,3.9v0H442.9z"/>
		<path class="st12" d="M448.1,174c0-3.5,1.1-6.2,4.4-6.2c3.3,0,4.4,2.8,4.4,6.2c0,3.5-1.1,6.3-4.4,6.3
			C449.2,180.3,448.1,177.5,448.1,174z M454.7,174c0-2.3-0.5-4.2-2.1-4.2s-2.1,1.9-2.1,4.2c0,2.4,0.5,4.3,2.1,4.3
			S454.7,176.4,454.7,174z"/>
		<path class="st12" d="M458.3,175.6l5.2-7.6h2.6v7.1h1.6v1.8h-1.6v3.1H464V177h-5.6V175.6z M464,175.2v-3.7c0-0.6,0.1-1.3,0.1-1.3
			h0c0,0-0.3,0.6-0.6,1.1l-2.8,3.9v0H464z"/>
	</g>
	<g class="st2">
		<path class="st12" d="M437.4,127.6l5.2-7.6h2.6v7.1h1.6v1.8h-1.6v3.1h-2.2V129h-5.6V127.6z M443.1,127.2v-3.7
			c0-0.6,0.1-1.3,0.1-1.3h0c0,0-0.3,0.6-0.6,1.1l-2.8,3.9v0H443.1z"/>
		<path class="st12" d="M448.3,126c0-3.5,1.1-6.2,4.4-6.2s4.4,2.8,4.4,6.2c0,3.5-1.1,6.3-4.4,6.3S448.3,129.5,448.3,126z M454.8,126
			c0-2.3-0.5-4.2-2.1-4.2s-2.1,1.9-2.1,4.2c0,2.4,0.5,4.3,2.1,4.3S454.8,128.4,454.8,126z"/>
		<path class="st12" d="M464.5,119.8c0.8,0,1.7,0.2,2.5,0.5l-0.6,1.9c-0.3-0.2-1.1-0.4-1.7-0.4c-1.9,0-2.9,1.6-3.2,3.2h0
			c0.4-0.5,1.4-0.8,2.3-0.8c2.4,0,3.9,1.9,3.9,4c0,2.2-1.6,4-4,4c-2.5,0-4.7-2.1-4.7-5.7C458.9,123.4,460.8,119.8,464.5,119.8z
			 M465.4,128.3c0-1.2-0.8-2.2-2.2-2.2c-1,0-2,0.5-2,1.4c0,1.3,1,2.9,2.4,2.9C464.7,130.3,465.4,129.4,465.4,128.3z"/>
	</g>
	<g class="st2">
		<path class="st12" d="M437.4,79.6l5.2-7.6h2.6v7.1h1.6V81h-1.6v3.1H443V81h-5.6V79.6z M443,79.2v-3.7c0-0.6,0.1-1.3,0.1-1.3h0
			c0,0-0.3,0.6-0.6,1.1l-2.8,3.9v0H443z"/>
		<path class="st12" d="M448.3,78c0-3.5,1.1-6.2,4.4-6.2s4.4,2.8,4.4,6.2c0,3.5-1.1,6.3-4.4,6.3S448.3,81.5,448.3,78z M454.8,78
			c0-2.3-0.5-4.2-2.1-4.2s-2.1,1.9-2.1,4.2c0,2.4,0.5,4.3,2.1,4.3S454.8,80.4,454.8,78z"/>
		<path class="st12" d="M460.7,77.5c-0.7-0.6-1.3-1.3-1.3-2.3c0-1.7,1.2-3.3,3.9-3.3c2.2,0,3.9,1.3,3.9,3.3c0,1.4-1,2.6-1.3,3
			c0.9,0.6,1.5,1.3,1.5,2.5c0,1.9-1.6,3.6-4.3,3.6c-2.6,0-4.3-1.6-4.3-3.7C458.8,78.9,460.2,77.8,460.7,77.5z M463.1,82.3
			c1.1,0,2-0.7,2-1.7c0-1.1-1.5-1.5-3-2.2c-0.3,0.3-1.1,1-1.1,2C461.1,81.5,462,82.3,463.1,82.3z M465,75.3c0-1-0.7-1.5-1.8-1.5
			s-1.7,0.6-1.7,1.4c0,1.1,1.3,1.6,2.7,2.2C464.4,77.1,465,76.3,465,75.3z"/>
	</g>
	<g class="st2">
		<path class="st12" d="M439.2,247.5l5.2-7.6h2.6v7.1h1.6v1.8H447v3.1h-2.2v-3.1h-5.6V247.5z M444.9,247v-3.7c0-0.6,0.1-1.3,0.1-1.3
			h0c0,0-0.3,0.6-0.6,1.1l-2.8,3.9v0H444.9z"/>
		<path class="st12" d="M450.1,245.9c0-3.5,1.1-6.2,4.4-6.2s4.4,2.8,4.4,6.2s-1.1,6.3-4.4,6.3S450.1,249.4,450.1,245.9z
			 M456.6,245.9c0-2.3-0.5-4.2-2.1-4.2s-2.1,1.9-2.1,4.2c0,2.4,0.5,4.3,2.1,4.3S456.6,248.3,456.6,245.9z"/>
		<path class="st12" d="M460.5,250.1h2.6v-6.7c0-0.4,0-0.8,0-0.8h0c0,0-0.2,0.3-0.5,0.7l-1,0.9l-1.3-1.4l3-2.9h1.9v10.2h2.6v1.9
			h-7.4V250.1z"/>
	</g>
	<g class="st2">
		<path class="st13" d="M438.5,199.6l5.2-7.6h2.6v7.1h1.6v1.8h-1.6v3.1h-2.2v-3.1h-5.6V199.6z M444.1,199.1v-3.7
			c0-0.6,0.1-1.3,0.1-1.3h0c0,0-0.3,0.6-0.6,1.1l-2.8,3.9v0H444.1z"/>
		<path class="st13" d="M449.3,198c0-3.5,1.1-6.2,4.4-6.2c3.3,0,4.4,2.8,4.4,6.2c0,3.5-1.1,6.3-4.4,6.3
			C450.4,204.3,449.3,201.5,449.3,198z M455.8,198c0-2.3-0.5-4.2-2.1-4.2s-2.1,1.9-2.1,4.2c0,2.4,0.5,4.3,2.1,4.3
			S455.8,200.4,455.8,198z"/>
		<path class="st13" d="M460.4,201c0.6,0.7,1.7,1.2,2.8,1.2c1.2,0,2.2-0.8,2.2-1.8c0-1.3-1.2-1.9-2.6-1.9h-0.8l-0.5-1.1l2.2-2.6
			c0.5-0.6,0.9-0.9,0.9-0.9v0c0,0-0.4,0.1-1.1,0.1h-3.6V192h7.4v1.4l-2.9,3.4c1.7,0.2,3.3,1.4,3.3,3.5c0,2.1-1.5,4-4.2,4
			c-1.4,0-2.9-0.5-4-1.6L460.4,201z"/>
	</g>
	<g class="st2">
		<path class="st14" d="M65.3,58.1h2.6v-6.7c0-0.4,0-0.8,0-0.8h0c0,0-0.2,0.3-0.5,0.7l-1,0.9l-1.3-1.4l3-2.9H70v10.2h2.6V60h-7.4
			V58.1z"/>
		<path class="st14" d="M77.7,58.2c1.1-0.2,1.8-1.1,1.8-4.1v-2.7h6.3V60h-2.2v-6.9h-2.1v1c0,3.8-1,5.9-3.9,6V58.2z"/>
		<path class="st14" d="M88.2,51.3h2.1V56c0,0.4,0,0.9-0.1,1h0c0.1-0.2,0.4-0.7,0.6-1l3.2-4.6h2.1V60h-2.1v-4.6c0-0.3,0-0.8,0.1-1h0
			c-0.1,0.2-0.4,0.7-0.6,1L90.3,60h-2.1V51.3z"/>
		<path class="st14" d="M100.5,53.2h-2.9v-1.8h7.9v1.8h-2.9V60h-2.1V53.2z"/>
		<path class="st14" d="M107,51.3h2V52c0,0.3,0,0.6,0,0.6h0c0.6-0.9,1.6-1.5,2.8-1.5c2.3,0,3.8,1.9,3.8,4.5c0,2.8-1.7,4.5-4,4.5
			c-1,0-1.9-0.4-2.5-1.2h0c0,0,0.1,0.3,0.1,0.7v3.7H107V51.3z M111.2,58.4c1.2,0,2.2-1,2.2-2.7c0-1.6-0.9-2.7-2.1-2.7
			c-1.1,0-2.2,0.8-2.2,2.7C109.1,57.1,109.8,58.4,111.2,58.4z"/>
	</g>
	<g class="st2">
		<path class="st12" d="M438.1,151.6l5.2-7.6h2.6v7.1h1.6v1.8h-1.6v3.1h-2.2v-3.1h-5.6V151.6z M443.8,151.1v-3.7
			c0-0.6,0.1-1.3,0.1-1.3h0c0,0-0.3,0.6-0.6,1.1l-2.8,3.9v0H443.8z"/>
		<path class="st12" d="M449,150c0-3.5,1.1-6.2,4.4-6.2c3.3,0,4.4,2.8,4.4,6.2c0,3.5-1.1,6.3-4.4,6.3C450.1,156.2,449,153.5,449,150
			z M455.5,150c0-2.3-0.5-4.2-2.1-4.2s-2.1,1.9-2.1,4.2c0,2.4,0.5,4.3,2.1,4.3S455.5,152.4,455.5,150z"/>
		<path class="st12" d="M460.5,153c0.5,0.6,1.5,1.2,2.6,1.2c1.2,0,2.3-0.8,2.3-2.1c0-1.3-1-2.1-2.4-2.1c-0.6,0-1.3,0.2-1.9,0.5
			l-1.2-0.4l0.6-6.1h6.4v1.9h-4.5l-0.2,2c0,0.3-0.1,0.6-0.1,0.6h0c0.2-0.1,0.9-0.3,1.3-0.3c2.7,0,4.2,1.8,4.2,4
			c0,2.4-1.9,4.1-4.4,4.1c-1.4,0-2.9-0.6-3.9-1.6L460.5,153z"/>
	</g>
	<g class="st2">
		<path class="st12" d="M438.9,103.6l5.2-7.6h2.6v7.1h1.6v1.8h-1.6v3.1h-2.2v-3.1h-5.6V103.6z M444.5,103.1v-3.7
			c0-0.6,0.1-1.3,0.1-1.3h0c0,0-0.3,0.6-0.6,1.1l-2.8,3.9v0H444.5z"/>
		<path class="st12" d="M449.8,102c0-3.5,1.1-6.2,4.4-6.2c3.3,0,4.4,2.8,4.4,6.2c0,3.5-1.1,6.3-4.4,6.3
			C450.9,108.2,449.8,105.5,449.8,102z M456.3,102c0-2.3-0.5-4.2-2.1-4.2s-2.1,1.9-2.1,4.2c0,2.4,0.5,4.3,2.1,4.3
			S456.3,104.4,456.3,102z"/>
		<path class="st12" d="M465,99c0.4-0.7,0.7-1.1,0.7-1.1v0c0,0-0.2,0-0.8,0h-5.2V96h8.3v1.5l-5.3,10.5h-2.3L465,99z"/>
	</g>
	<g class="st2">
		<path class="st12" d="M437.5,55.6l5.2-7.6h2.6v7.1h1.6v1.8h-1.6V60h-2.2v-3.1h-5.6V55.6z M443.1,55.1v-3.7c0-0.6,0.1-1.3,0.1-1.3
			h0c0,0-0.3,0.6-0.6,1.1l-2.8,3.9v0H443.1z"/>
		<path class="st12" d="M448.4,54c0-3.5,1.1-6.2,4.4-6.2c3.3,0,4.4,2.8,4.4,6.2c0,3.5-1.1,6.3-4.4,6.3
			C449.5,60.2,448.4,57.4,448.4,54z M454.9,54c0-2.3-0.5-4.2-2.1-4.2s-2.1,1.9-2.1,4.2c0,2.4,0.5,4.3,2.1,4.3S454.9,56.4,454.9,54z"
			/>
		<path class="st12" d="M460.1,57.8c0.4,0.2,1.1,0.4,1.7,0.4c1.9,0,2.9-1.6,3.2-3.2h0c-0.4,0.5-1.4,0.8-2.3,0.8
			c-2.4,0-3.9-1.9-3.9-4c0-2.2,1.6-4,4-4c2.5,0,4.7,2.1,4.7,5.7c0,3.2-1.8,6.7-5.6,6.7c-0.8,0-1.7-0.1-2.5-0.5L460.1,57.8z
			 M465.2,52.7c0-1.5-1.1-3-2.4-3c-1.1,0-1.8,0.9-1.8,2c0,1.2,0.8,2.2,2.2,2.2C464.3,54,465.2,53.5,465.2,52.7z"/>
	</g>
	<g class="st2">
		<path class="st12" d="M439.6,31.5l5.2-7.6h2.6V31h1.6v1.8h-1.6V36h-2.2v-3.1h-5.6V31.5z M445.3,31v-3.7c0-0.6,0.1-1.3,0.1-1.3h0
			c0,0-0.3,0.6-0.6,1.1l-2.8,3.9v0H445.3z"/>
		<path class="st12" d="M450.2,34.1h2.6v-6.7c0-0.4,0-0.8,0-0.8h0c0,0-0.2,0.3-0.5,0.7l-1,0.9l-1.3-1.4l3-2.9h1.9v10.2h2.6V36h-7.4
			V34.1z"/>
		<path class="st12" d="M458.6,29.9c0-3.5,1.1-6.2,4.4-6.2c3.3,0,4.4,2.8,4.4,6.2c0,3.5-1.1,6.3-4.4,6.3
			C459.7,36.2,458.6,33.4,458.6,29.9z M465.1,29.9c0-2.3-0.5-4.2-2.1-4.2s-2.1,1.9-2.1,4.2c0,2.4,0.5,4.3,2.1,4.3
			S465.1,32.3,465.1,29.9z"/>
	</g>
	<g class="st2">
		<path class="st12" d="M437,271.5l5.2-7.6h2.6v7.1h1.6v1.8h-1.6v3.1h-2.2v-3.1H437V271.5z M442.6,271.1v-3.7c0-0.6,0.1-1.3,0.1-1.3
			h0c0,0-0.3,0.6-0.6,1.1l-2.8,3.9v0H442.6z"/>
		<path class="st12" d="M447.9,269.9c0-3.5,1.1-6.2,4.4-6.2s4.4,2.8,4.4,6.2s-1.1,6.3-4.4,6.3S447.9,273.4,447.9,269.9z
			 M454.4,269.9c0-2.3-0.5-4.2-2.1-4.2s-2.1,1.9-2.1,4.2c0,2.4,0.5,4.3,2.1,4.3S454.4,272.3,454.4,269.9z"/>
		<path class="st12" d="M458.6,269.9c0-3.5,1.1-6.2,4.4-6.2c3.3,0,4.4,2.8,4.4,6.2s-1.1,6.3-4.4,6.3
			C459.7,276.2,458.6,273.4,458.6,269.9z M465.1,269.9c0-2.3-0.5-4.2-2.1-4.2s-2.1,1.9-2.1,4.2c0,2.4,0.5,4.3,2.1,4.3
			S465.1,272.3,465.1,269.9z"/>
	</g>
	<g class="st2">
		<defs>
			<rect id="SVGID_13_" width="576.3" height="312"/>
		</defs>
		<clipPath id="SVGID_14_">
			<use xlink:href="#SVGID_13_"  style="overflow:visible;"/>
		</clipPath>
		<circle class="st20" cx="421.3" cy="155" r="149"/>
	</g>
</g>
<g>
	<g>
		<defs>
			<rect id="SVGID_15_" width="576.3" height="312"/>
		</defs>
		<clipPath id="SVGID_16_">
			<use xlink:href="#SVGID_15_"  style="overflow:visible;"/>
		</clipPath>
		<path class="st21" d="M315.3,251v7c0,0,28,48,107.5,48c79.5,0,109.5-48,109.5-48v-7H315.3z"/>
	</g>
	<line class="st22" x1="172.4" y1="203" x2="277.1" y2="184"/>
	<rect x="43.3" y="204" class="st23" width="148" height="99"/>
	<g>
		<defs>
			<rect id="SVGID_17_" width="576.3" height="312"/>
		</defs>
		<clipPath id="SVGID_18_">
			<use xlink:href="#SVGID_17_"  style="overflow:visible;"/>
		</clipPath>
		<polygon class="st24" points="192,6 229,12 192,36.5 192,306 44,306 44,6 		"/>
	</g>
	<line class="st25" x1="192" y1="251.5" x2="160.3" y2="251.5"/>
	<line class="st25" x1="192" y1="275.5" x2="160.3" y2="275.5"/>
	<line class="st25" x1="192" y1="155.1" x2="160.3" y2="155.1"/>
	<line class="st25" x1="192" y1="132.2" x2="160.3" y2="132.2"/>
	<line class="st25" x1="192" y1="107.3" x2="160.3" y2="107.3"/>
	<line class="st25" x1="192" y1="84.4" x2="160.3" y2="84.4"/>
	<line class="st25" x1="192" y1="59.5" x2="160.3" y2="59.5"/>
	<g>
		<defs>
			<rect id="SVGID_19_" width="576.3" height="312"/>
		</defs>
		<clipPath id="SVGID_20_">
			<use xlink:href="#SVGID_19_"  style="overflow:visible;"/>
		</clipPath>
		<polyline class="st26" points="44,66 18,66 6,76 6,216 		"/>
		<path class="st27" d="M177.3,239c19.3,0,35-15.7,35-35s-15.7-35-35-35s-35,15.7-35,35S158,239,177.3,239"/>
		<circle class="st28" cx="177.3" cy="204" r="35"/>
	</g>
	<line class="st22" x1="198.3" y1="203.5" x2="160.3" y2="203.5"/>
	<polygon class="st29" points="207.3,184.7 197.3,175 197.3,233 206.1,224.5 209.8,216.1 212.3,207.6 211.1,198 	"/>
	<line class="st25" x1="511.3" y1="275.5" x2="480.3" y2="275.5"/>
	<line class="st22" x1="535.3" y1="251.5" x2="480.3" y2="251.5"/>
	<line class="st25" x1="549.3" y1="228" x2="480.3" y2="228"/>
	<line class="st25" x1="565.3" y1="204" x2="480.3" y2="204"/>
	<line class="st22" x1="424.8" y1="251.5" x2="308.3" y2="251.5"/>
	<line class="st25" x1="570.3" y1="179.5" x2="480.3" y2="179.5"/>
	<line class="st25" x1="570.3" y1="156" x2="480.3" y2="156"/>
	<line class="st25" x1="570.3" y1="132" x2="480.3" y2="132"/>
	<line class="st25" x1="561.3" y1="108" x2="480.3" y2="108"/>
	<line class="st25" x1="547.3" y1="84" x2="480.3" y2="84"/>
	<line class="st25" x1="535.3" y1="60" x2="480.3" y2="60"/>
	<line class="st25" x1="513.3" y1="35.5" x2="480.3" y2="35.5"/>
	<g>
		<path class="st12" d="M438.1,223.7l5.2-7.6h2.6v7.1h1.6v1.8h-1.6v3.1h-2.2V225h-5.6V223.7z M443.7,223.2v-3.7
			c0-0.6,0.1-1.3,0.1-1.3h0c0,0-0.3,0.6-0.6,1.1l-2.8,3.9v0H443.7z"/>
		<path class="st12" d="M448.9,222.1c0-3.5,1.1-6.2,4.4-6.2s4.4,2.8,4.4,6.2s-1.1,6.3-4.4,6.3S448.9,225.5,448.9,222.1z
			 M455.5,222.1c0-2.3-0.5-4.2-2.1-4.2s-2.1,1.9-2.1,4.2c0,2.4,0.5,4.3,2.1,4.3S455.5,224.4,455.5,222.1z"/>
		<path class="st12" d="M459.3,227c0-4.4,5.6-5,5.6-7.4c0-1.1-0.8-1.7-1.8-1.7c-0.9,0-1.7,0.6-2.2,1.4l-1.6-1.1
			c0.7-1.3,2.1-2.4,4-2.4c2.1,0,3.9,1.3,3.9,3.6c0,3.9-5.4,4.5-5.5,6.8h5.7v1.9h-8C459.3,227.7,459.3,227.4,459.3,227z"/>
	</g>
	<g>
		<path class="st12" d="M437.3,175.6l5.2-7.6h2.6v7.1h1.6v1.8h-1.6v3.1h-2.2V177h-5.6V175.6z M442.9,175.2v-3.7
			c0-0.6,0.1-1.3,0.1-1.3h0c0,0-0.3,0.6-0.6,1.1l-2.8,3.9v0H442.9z"/>
		<path class="st12" d="M448.1,174c0-3.5,1.1-6.2,4.4-6.2c3.3,0,4.4,2.8,4.4,6.2c0,3.5-1.1,6.3-4.4,6.3
			C449.2,180.3,448.1,177.5,448.1,174z M454.7,174c0-2.3-0.5-4.2-2.1-4.2s-2.1,1.9-2.1,4.2c0,2.4,0.5,4.3,2.1,4.3
			S454.7,176.4,454.7,174z"/>
		<path class="st12" d="M458.3,175.6l5.2-7.6h2.6v7.1h1.6v1.8h-1.6v3.1H464V177h-5.6V175.6z M464,175.2v-3.7c0-0.6,0.1-1.3,0.1-1.3
			h0c0,0-0.3,0.6-0.6,1.1l-2.8,3.9v0H464z"/>
	</g>
	<g>
		<path class="st12" d="M437.4,127.6l5.2-7.6h2.6v7.1h1.6v1.8h-1.6v3.1h-2.2V129h-5.6V127.6z M443.1,127.2v-3.7
			c0-0.6,0.1-1.3,0.1-1.3h0c0,0-0.3,0.6-0.6,1.1l-2.8,3.9v0H443.1z"/>
		<path class="st12" d="M448.3,126c0-3.5,1.1-6.2,4.4-6.2s4.4,2.8,4.4,6.2c0,3.5-1.1,6.3-4.4,6.3S448.3,129.5,448.3,126z M454.8,126
			c0-2.3-0.5-4.2-2.1-4.2s-2.1,1.9-2.1,4.2c0,2.4,0.5,4.3,2.1,4.3S454.8,128.4,454.8,126z"/>
		<path class="st12" d="M464.5,119.8c0.8,0,1.7,0.2,2.5,0.5l-0.6,1.9c-0.3-0.2-1.1-0.4-1.7-0.4c-1.9,0-2.9,1.6-3.2,3.2h0
			c0.4-0.5,1.4-0.8,2.3-0.8c2.4,0,3.9,1.9,3.9,4c0,2.2-1.6,4-4,4c-2.5,0-4.7-2.1-4.7-5.7C458.9,123.4,460.8,119.8,464.5,119.8z
			 M465.4,128.3c0-1.2-0.8-2.2-2.2-2.2c-1,0-2,0.5-2,1.4c0,1.3,1,2.9,2.4,2.9C464.7,130.3,465.4,129.4,465.4,128.3z"/>
	</g>
	<g>
		<path class="st12" d="M437.4,79.6l5.2-7.6h2.6v7.1h1.6V81h-1.6v3.1H443V81h-5.6V79.6z M443,79.2v-3.7c0-0.6,0.1-1.3,0.1-1.3h0
			c0,0-0.3,0.6-0.6,1.1l-2.8,3.9v0H443z"/>
		<path class="st12" d="M448.3,78c0-3.5,1.1-6.2,4.4-6.2s4.4,2.8,4.4,6.2c0,3.5-1.1,6.3-4.4,6.3S448.3,81.5,448.3,78z M454.8,78
			c0-2.3-0.5-4.2-2.1-4.2s-2.1,1.9-2.1,4.2c0,2.4,0.5,4.3,2.1,4.3S454.8,80.4,454.8,78z"/>
		<path class="st12" d="M460.7,77.5c-0.7-0.6-1.3-1.3-1.3-2.3c0-1.7,1.2-3.3,3.9-3.3c2.2,0,3.9,1.3,3.9,3.3c0,1.4-1,2.6-1.3,3
			c0.9,0.6,1.5,1.3,1.5,2.5c0,1.9-1.6,3.6-4.3,3.6c-2.6,0-4.3-1.6-4.3-3.7C458.8,78.9,460.2,77.8,460.7,77.5z M463.1,82.3
			c1.1,0,2-0.7,2-1.7c0-1.1-1.5-1.5-3-2.2c-0.3,0.3-1.1,1-1.1,2C461.1,81.5,462,82.3,463.1,82.3z M465,75.3c0-1-0.7-1.5-1.8-1.5
			s-1.7,0.6-1.7,1.4c0,1.1,1.3,1.6,2.7,2.2C464.4,77.1,465,76.3,465,75.3z"/>
	</g>
	<g>
		<path class="st29" d="M439.2,247.5l5.2-7.6h2.6v7.1h1.6v1.8H447v3.1h-2.2v-3.1h-5.6V247.5z M444.9,247v-3.7c0-0.6,0.1-1.3,0.1-1.3
			h0c0,0-0.3,0.6-0.6,1.1l-2.8,3.9v0H444.9z"/>
		<path class="st29" d="M450.1,245.9c0-3.5,1.1-6.2,4.4-6.2s4.4,2.8,4.4,6.2s-1.1,6.3-4.4,6.3S450.1,249.4,450.1,245.9z
			 M456.6,245.9c0-2.3-0.5-4.2-2.1-4.2s-2.1,1.9-2.1,4.2c0,2.4,0.5,4.3,2.1,4.3S456.6,248.3,456.6,245.9z"/>
		<path class="st29" d="M460.5,250.1h2.6v-6.7c0-0.4,0-0.8,0-0.8h0c0,0-0.2,0.3-0.5,0.7l-1,0.9l-1.3-1.4l3-2.9h1.9v10.2h2.6v1.9
			h-7.4V250.1z"/>
	</g>
	<g>
		<path class="st12" d="M438.5,199.6l5.2-7.6h2.6v7.1h1.6v1.8h-1.6v3.1h-2.2v-3.1h-5.6V199.6z M444.1,199.1v-3.7
			c0-0.6,0.1-1.3,0.1-1.3h0c0,0-0.3,0.6-0.6,1.1l-2.8,3.9v0H444.1z"/>
		<path class="st12" d="M449.3,198c0-3.5,1.1-6.2,4.4-6.2c3.3,0,4.4,2.8,4.4,6.2c0,3.5-1.1,6.3-4.4,6.3
			C450.4,204.3,449.3,201.5,449.3,198z M455.8,198c0-2.3-0.5-4.2-2.1-4.2s-2.1,1.9-2.1,4.2c0,2.4,0.5,4.3,2.1,4.3
			S455.8,200.4,455.8,198z"/>
		<path class="st12" d="M460.4,201c0.6,0.7,1.7,1.2,2.8,1.2c1.2,0,2.2-0.8,2.2-1.8c0-1.3-1.2-1.9-2.6-1.9h-0.8l-0.5-1.1l2.2-2.6
			c0.5-0.6,0.9-0.9,0.9-0.9v0c0,0-0.4,0.1-1.1,0.1h-3.6V192h7.4v1.4l-2.9,3.4c1.7,0.2,3.3,1.4,3.3,3.5c0,2.1-1.5,4-4.2,4
			c-1.4,0-2.9-0.5-4-1.6L460.4,201z"/>
	</g>
	<g>
		<path class="st14" d="M65.3,58.1h2.6v-6.7c0-0.4,0-0.8,0-0.8h0c0,0-0.2,0.3-0.5,0.7l-1,0.9l-1.3-1.4l3-2.9H70v10.2h2.6V60h-7.4
			V58.1z"/>
		<path class="st14" d="M77.7,58.2c1.1-0.2,1.8-1.1,1.8-4.1v-2.7h6.3V60h-2.2v-6.9h-2.1v1c0,3.8-1,5.9-3.9,6V58.2z"/>
		<path class="st14" d="M88.2,51.3h2.1V56c0,0.4,0,0.9-0.1,1h0c0.1-0.2,0.4-0.7,0.6-1l3.2-4.6h2.1V60h-2.1v-4.6c0-0.3,0-0.8,0.1-1h0
			c-0.1,0.2-0.4,0.7-0.6,1L90.3,60h-2.1V51.3z"/>
		<path class="st14" d="M100.5,53.2h-2.9v-1.8h7.9v1.8h-2.9V60h-2.1V53.2z"/>
		<path class="st14" d="M107,51.3h2V52c0,0.3,0,0.6,0,0.6h0c0.6-0.9,1.6-1.5,2.8-1.5c2.3,0,3.8,1.9,3.8,4.5c0,2.8-1.7,4.5-4,4.5
			c-1,0-1.9-0.4-2.5-1.2h0c0,0,0.1,0.3,0.1,0.7v3.7H107V51.3z M111.2,58.4c1.2,0,2.2-1,2.2-2.7c0-1.6-0.9-2.7-2.1-2.7
			c-1.1,0-2.2,0.8-2.2,2.7C109.1,57.1,109.8,58.4,111.2,58.4z"/>
	</g>
	<g>
		<path class="st12" d="M438.1,151.6l5.2-7.6h2.6v7.1h1.6v1.8h-1.6v3.1h-2.2v-3.1h-5.6V151.6z M443.8,151.1v-3.7
			c0-0.6,0.1-1.3,0.1-1.3h0c0,0-0.3,0.6-0.6,1.1l-2.8,3.9v0H443.8z"/>
		<path class="st12" d="M449,150c0-3.5,1.1-6.2,4.4-6.2c3.3,0,4.4,2.8,4.4,6.2c0,3.5-1.1,6.3-4.4,6.3C450.1,156.2,449,153.5,449,150
			z M455.5,150c0-2.3-0.5-4.2-2.1-4.2s-2.1,1.9-2.1,4.2c0,2.4,0.5,4.3,2.1,4.3S455.5,152.4,455.5,150z"/>
		<path class="st12" d="M460.5,153c0.5,0.6,1.5,1.2,2.6,1.2c1.2,0,2.3-0.8,2.3-2.1c0-1.3-1-2.1-2.4-2.1c-0.6,0-1.3,0.2-1.9,0.5
			l-1.2-0.4l0.6-6.1h6.4v1.9h-4.5l-0.2,2c0,0.3-0.1,0.6-0.1,0.6h0c0.2-0.1,0.9-0.3,1.3-0.3c2.7,0,4.2,1.8,4.2,4
			c0,2.4-1.9,4.1-4.4,4.1c-1.4,0-2.9-0.6-3.9-1.6L460.5,153z"/>
	</g>
	<g>
		<path class="st12" d="M438.9,103.6l5.2-7.6h2.6v7.1h1.6v1.8h-1.6v3.1h-2.2v-3.1h-5.6V103.6z M444.5,103.1v-3.7
			c0-0.6,0.1-1.3,0.1-1.3h0c0,0-0.3,0.6-0.6,1.1l-2.8,3.9v0H444.5z"/>
		<path class="st12" d="M449.8,102c0-3.5,1.1-6.2,4.4-6.2c3.3,0,4.4,2.8,4.4,6.2c0,3.5-1.1,6.3-4.4,6.3
			C450.9,108.2,449.8,105.5,449.8,102z M456.3,102c0-2.3-0.5-4.2-2.1-4.2s-2.1,1.9-2.1,4.2c0,2.4,0.5,4.3,2.1,4.3
			S456.3,104.4,456.3,102z"/>
		<path class="st12" d="M465,99c0.4-0.7,0.7-1.1,0.7-1.1v0c0,0-0.2,0-0.8,0h-5.2V96h8.3v1.5l-5.3,10.5h-2.3L465,99z"/>
	</g>
	<g>
		<path class="st12" d="M437.5,55.6l5.2-7.6h2.6v7.1h1.6v1.8h-1.6V60h-2.2v-3.1h-5.6V55.6z M443.1,55.1v-3.7c0-0.6,0.1-1.3,0.1-1.3
			h0c0,0-0.3,0.6-0.6,1.1l-2.8,3.9v0H443.1z"/>
		<path class="st12" d="M448.4,54c0-3.5,1.1-6.2,4.4-6.2c3.3,0,4.4,2.8,4.4,6.2c0,3.5-1.1,6.3-4.4,6.3
			C449.5,60.2,448.4,57.4,448.4,54z M454.9,54c0-2.3-0.5-4.2-2.1-4.2s-2.1,1.9-2.1,4.2c0,2.4,0.5,4.3,2.1,4.3S454.9,56.4,454.9,54z"
			/>
		<path class="st12" d="M460.1,57.8c0.4,0.2,1.1,0.4,1.7,0.4c1.9,0,2.9-1.6,3.2-3.2h0c-0.4,0.5-1.4,0.8-2.3,0.8
			c-2.4,0-3.9-1.9-3.9-4c0-2.2,1.6-4,4-4c2.5,0,4.7,2.1,4.7,5.7c0,3.2-1.8,6.7-5.6,6.7c-0.8,0-1.7-0.1-2.5-0.5L460.1,57.8z
			 M465.2,52.7c0-1.5-1.1-3-2.4-3c-1.1,0-1.8,0.9-1.8,2c0,1.2,0.8,2.2,2.2,2.2C464.3,54,465.2,53.5,465.2,52.7z"/>
	</g>
	<g>
		<path class="st12" d="M439.6,31.5l5.2-7.6h2.6V31h1.6v1.8h-1.6V36h-2.2v-3.1h-5.6V31.5z M445.3,31v-3.7c0-0.6,0.1-1.3,0.1-1.3h0
			c0,0-0.3,0.6-0.6,1.1l-2.8,3.9v0H445.3z"/>
		<path class="st12" d="M450.2,34.1h2.6v-6.7c0-0.4,0-0.8,0-0.8h0c0,0-0.2,0.3-0.5,0.7l-1,0.9l-1.3-1.4l3-2.9h1.9v10.2h2.6V36h-7.4
			V34.1z"/>
		<path class="st12" d="M458.6,29.9c0-3.5,1.1-6.2,4.4-6.2c3.3,0,4.4,2.8,4.4,6.2c0,3.5-1.1,6.3-4.4,6.3
			C459.7,36.2,458.6,33.4,458.6,29.9z M465.1,29.9c0-2.3-0.5-4.2-2.1-4.2s-2.1,1.9-2.1,4.2c0,2.4,0.5,4.3,2.1,4.3
			S465.1,32.3,465.1,29.9z"/>
	</g>
	<g>
		<path class="st12" d="M437,271.5l5.2-7.6h2.6v7.1h1.6v1.8h-1.6v3.1h-2.2v-3.1H437V271.5z M442.6,271.1v-3.7c0-0.6,0.1-1.3,0.1-1.3
			h0c0,0-0.3,0.6-0.6,1.1l-2.8,3.9v0H442.6z"/>
		<path class="st12" d="M447.9,269.9c0-3.5,1.1-6.2,4.4-6.2s4.4,2.8,4.4,6.2s-1.1,6.3-4.4,6.3S447.9,273.4,447.9,269.9z
			 M454.4,269.9c0-2.3-0.5-4.2-2.1-4.2s-2.1,1.9-2.1,4.2c0,2.4,0.5,4.3,2.1,4.3S454.4,272.3,454.4,269.9z"/>
		<path class="st12" d="M458.6,269.9c0-3.5,1.1-6.2,4.4-6.2c3.3,0,4.4,2.8,4.4,6.2s-1.1,6.3-4.4,6.3
			C459.7,276.2,458.6,273.4,458.6,269.9z M465.1,269.9c0-2.3-0.5-4.2-2.1-4.2s-2.1,1.9-2.1,4.2c0,2.4,0.5,4.3,2.1,4.3
			S465.1,272.3,465.1,269.9z"/>
	</g>
	<g>
		<defs>
			<rect id="SVGID_21_" width="576.3" height="312"/>
		</defs>
		<clipPath id="SVGID_22_">
			<use xlink:href="#SVGID_21_"  style="overflow:visible;"/>
		</clipPath>
		<circle class="st30" cx="421.3" cy="155" r="149"/>
	</g>
</g>
</svg>
