<?xml version="1.0" encoding="utf-8"?>
<!-- Generator: Adobe Illustrator 21.0.0, SVG Export Plug-In . SVG Version: 6.00 Build 0)  -->
<svg version="1.1" id="Layer_1" xmlns="http://www.w3.org/2000/svg" xmlns:xlink="http://www.w3.org/1999/xlink" x="0px" y="0px"
	 viewBox="0 0 110 174" style="enable-background:new 0 0 110 174;" xml:space="preserve">
<style type="text/css">
	.st0{fill:#D0D2D3;}
	.st1{fill:#FF6400;}
	.st2{clip-path:url(#SVGID_2_);fill:#FFFFFF;}
</style>
<rect x="55" y="2.1" transform="matrix(0.7071 -0.7071 0.7071 0.7071 14.7995 41.9052)" class="st0" width="6" height="2"/>
<rect x="-0.2" y="57.2" transform="matrix(0.7074 -0.7069 0.7069 0.7074 -40.3411 19.0443)" class="st0" width="6" height="2"/>
<rect x="11.7" y="22" transform="matrix(0.7071 -0.7071 0.7071 0.7071 -22.4432 53.817)" class="st0" width="84" height="64"/>
<rect x="46.5" y="103.9" transform="matrix(0.7071 -0.7071 0.7071 0.7071 -59.6864 65.73)" class="st0" width="6" height="2"/>
<rect x="23.7" y="34" transform="matrix(0.7071 -0.7071 0.7071 0.7071 -22.4423 53.8168)" class="st1" width="60" height="40"/>
<g>
	<defs>
		<rect id="SVGID_1_" x="23.7" y="34" transform="matrix(0.7071 -0.7071 0.7071 0.7071 -22.4422 53.8168)" width="60" height="40"/>
	</defs>
	<clipPath id="SVGID_2_">
		<use xlink:href="#SVGID_1_"  style="overflow:visible;"/>
	</clipPath>
	<path class="st2" d="M93.5,42h-62l24-26c0,0,8,0,9,1s7,6,9,8S93.5,42,93.5,42"/>
</g>
<polygon class="st1" points="107.7,42 104.5,42 104.5,174 110.5,174 110.5,42 "/>
</svg>
