<?xml version="1.0" encoding="utf-8"?>
<!-- Generator: Adobe Illustrator 21.0.0, SVG Export Plug-In . SVG Version: 6.00 Build 0)  -->
<svg version="1.1" id="Layer_1" xmlns="http://www.w3.org/2000/svg" xmlns:xlink="http://www.w3.org/1999/xlink" x="0px" y="0px"
	 viewBox="0 0 770 168" style="enable-background:new 0 0 770 168;" xml:space="preserve">
<style type="text/css">
	.st0{fill:#D0D2D3;}
	.st1{clip-path:url(#SVGID_2_);fill:#D0D2D3;}
	.st2{clip-path:url(#SVGID_4_);fill:#D0D2D3;}
	.st3{clip-path:url(#SVGID_6_);fill:url(#SVGID_7_);}
	.st4{fill:#FFFFFF;}
	.st5{fill:#FF6400;}
</style>
<g>
	<rect x="98" y="12" class="st0" width="512" height="120"/>
	<g>
		<defs>
			<rect id="SVGID_1_" x="98" y="-84" width="672" height="252"/>
		</defs>
		<clipPath id="SVGID_2_">
			<use xlink:href="#SVGID_1_"  style="overflow:visible;"/>
		</clipPath>
		<path class="st1" d="M706,64c0-35.3-28.7-52-64-52v52l64,12"/>
	</g>
	<rect x="642" y="48" class="st0" width="96" height="24"/>
	<polygon class="st0" points="642,132 770,132 770,84 706,61 642,60 	"/>
	<rect x="162" y="120" class="st0" width="608" height="24"/>
	<g>
		<defs>
			<rect id="SVGID_3_" x="98" y="-84" width="672" height="252"/>
		</defs>
		<clipPath id="SVGID_4_">
			<use xlink:href="#SVGID_3_"  style="overflow:visible;"/>
		</clipPath>
		<path class="st2" d="M226,168c17.7,0,32-14.3,32-32s-14.3-32-32-32s-32,14.3-32,32S208.3,168,226,168"/>
		<path class="st2" d="M290,168c17.7,0,32-14.3,32-32s-14.3-32-32-32c-17.7,0-32,14.3-32,32S272.3,168,290,168"/>
		<path class="st2" d="M577,168c17.7,0,32-14.3,32-32s-14.3-32-32-32c-17.7,0-32,14.3-32,32S559.3,168,577,168"/>
		<path class="st2" d="M706,168c17.7,0,32-14.3,32-32s-14.3-32-32-32c-17.7,0-32,14.3-32,32S688.3,168,706,168"/>
	</g>
	<g>
		<defs>
			<rect id="SVGID_5_" x="110" y="24" width="488" height="96"/>
		</defs>
		<clipPath id="SVGID_6_">
			<use xlink:href="#SVGID_5_"  style="overflow:visible;"/>
		</clipPath>
		
			<radialGradient id="SVGID_7_" cx="-300.1082" cy="468.2705" r="1" gradientTransform="matrix(-141.9927 63.5164 63.5164 141.9927 -72097.5156 -47392.6836)" gradientUnits="userSpaceOnUse">
			<stop  offset="0" style="stop-color:#FF6400"/>
			<stop  offset="1" style="stop-color:#FFB07F"/>
		</radialGradient>
		<polygon class="st3" points="633.8,104 191.4,301.9 74.2,40 516.6,-157.9 		"/>
	</g>
	<rect x="110" y="24" class="st4" width="488" height="12"/>
	<rect x="257" y="12" class="st5" width="6" height="36"/>
	<rect x="227" class="st0" width="64" height="24"/>
</g>
</svg>
